<svg xmlns="http://www.w3.org/2000/svg" xmlns:xlink="http://www.w3.org/1999/xlink" width="500" zoomAndPan="magnify" viewBox="0 0 375 374.999991" height="500" preserveAspectRatio="xMidYMid meet" version="1.0"><defs><g/><clipPath id="8d85034283"><path d="M 76.253906 47.527344 L 295 47.527344 L 295 196 L 76.253906 196 Z M 76.253906 47.527344 " clip-rule="nonzero"/></clipPath></defs><rect x="-37.5" width="450" fill="#ffffff" y="-37.499999" height="449.999989" fill-opacity="1"/><rect x="-37.5" width="450" fill="#1b2479" y="-37.499999" height="449.999989" fill-opacity="1"/><g fill="#ffffff" fill-opacity="1"><g transform="translate(45.070314, 289.435059)"><g><path d="M 30.0625 -24.421875 C 30.0625 -22.148438 29.65625 -20.25 28.84375 -18.71875 C 28.03125 -17.195312 26.925781 -15.988281 25.53125 -15.09375 C 24.132812 -14.207031 22.578125 -13.578125 20.859375 -13.203125 C 19.140625 -12.828125 17.375 -12.640625 15.5625 -12.640625 C 14.976562 -12.640625 14.328125 -12.65625 13.609375 -12.6875 C 12.898438 -12.726562 12.238281 -12.765625 11.625 -12.796875 L 11.625 -0.96875 C 11.625 -0.707031 11.523438 -0.476562 11.328125 -0.28125 C 11.140625 -0.09375 10.914062 0 10.65625 0 L 4.375 0 C 4.113281 0 3.882812 -0.0859375 3.6875 -0.265625 C 3.5 -0.441406 3.40625 -0.660156 3.40625 -0.921875 L 3.40625 -33.609375 C 3.40625 -34.453125 3.582031 -35.019531 3.9375 -35.3125 C 4.289062 -35.601562 4.84375 -35.816406 5.59375 -35.953125 C 6.820312 -36.140625 8.335938 -36.289062 10.140625 -36.40625 C 11.941406 -36.519531 13.71875 -36.578125 15.46875 -36.578125 C 17.3125 -36.578125 19.097656 -36.390625 20.828125 -36.015625 C 22.566406 -35.640625 24.125 -35.015625 25.5 -34.140625 C 26.882812 -33.265625 27.988281 -32.070312 28.8125 -30.5625 C 29.644531 -29.0625 30.0625 -27.160156 30.0625 -24.859375 Z M 21.796875 -24.421875 L 21.796875 -24.859375 C 21.796875 -26.578125 21.265625 -27.804688 20.203125 -28.546875 C 19.148438 -29.296875 17.601562 -29.671875 15.5625 -29.671875 C 15.332031 -29.671875 14.941406 -29.660156 14.390625 -29.640625 C 13.847656 -29.628906 13.300781 -29.613281 12.75 -29.59375 C 12.195312 -29.582031 11.820312 -29.5625 11.625 -29.53125 L 11.625 -19.609375 C 11.820312 -19.609375 12.203125 -19.597656 12.765625 -19.578125 C 13.335938 -19.554688 13.90625 -19.535156 14.46875 -19.515625 C 15.039062 -19.503906 15.40625 -19.5 15.5625 -19.5 C 17.738281 -19.5 19.320312 -19.90625 20.3125 -20.71875 C 21.300781 -21.53125 21.796875 -22.765625 21.796875 -24.421875 Z M 21.796875 -24.421875 "/></g></g></g><g fill="#ffffff" fill-opacity="1"><g transform="translate(76.730231, 289.435059)"><g><path d="M 31.421875 -3.75 C 31.421875 -2.550781 31.191406 -1.726562 30.734375 -1.28125 C 30.285156 -0.84375 29.539062 -0.546875 28.5 -0.390625 C 28.019531 -0.328125 27.320312 -0.242188 26.40625 -0.140625 C 25.5 -0.046875 24.507812 0.0390625 23.4375 0.125 C 22.375 0.207031 21.347656 0.28125 20.359375 0.34375 C 19.367188 0.40625 18.550781 0.4375 17.90625 0.4375 C 15.757812 0.4375 13.796875 0.226562 12.015625 -0.1875 C 10.234375 -0.613281 8.703125 -1.335938 7.421875 -2.359375 C 6.140625 -3.378906 5.148438 -4.796875 4.453125 -6.609375 C 3.753906 -8.429688 3.40625 -10.71875 3.40625 -13.46875 L 3.40625 -35.21875 C 3.40625 -35.476562 3.5 -35.695312 3.6875 -35.875 C 3.882812 -36.050781 4.113281 -36.140625 4.375 -36.140625 L 10.75 -36.140625 C 11.007812 -36.140625 11.234375 -36.050781 11.421875 -35.875 C 11.617188 -35.695312 11.71875 -35.476562 11.71875 -35.21875 L 11.71875 -13.46875 C 11.71875 -11.007812 12.125 -9.234375 12.9375 -8.140625 C 13.75 -7.054688 15.238281 -6.515625 17.40625 -6.515625 C 18.25 -6.515625 19.207031 -6.546875 20.28125 -6.609375 C 21.351562 -6.679688 22.296875 -6.765625 23.109375 -6.859375 L 23.109375 -35.21875 C 23.109375 -35.476562 23.203125 -35.695312 23.390625 -35.875 C 23.585938 -36.050781 23.816406 -36.140625 24.078125 -36.140625 L 30.40625 -36.140625 C 30.664062 -36.140625 30.898438 -36.050781 31.109375 -35.875 C 31.316406 -35.695312 31.421875 -35.476562 31.421875 -35.21875 Z M 31.421875 -3.75 "/></g></g></g><g fill="#ffffff" fill-opacity="1"><g transform="translate(111.55127, 289.435059)"><g><path d="M 30.296875 -10.453125 C 30.296875 -8.316406 29.898438 -6.539062 29.109375 -5.125 C 28.316406 -3.71875 27.210938 -2.609375 25.796875 -1.796875 C 24.390625 -0.984375 22.757812 -0.40625 20.90625 -0.0625 C 19.0625 0.269531 17.085938 0.4375 14.984375 0.4375 C 13.390625 0.4375 11.738281 0.378906 10.03125 0.265625 C 8.332031 0.148438 7.015625 0.015625 6.078125 -0.140625 C 5.109375 -0.304688 4.421875 -0.597656 4.015625 -1.015625 C 3.609375 -1.441406 3.40625 -2.207031 3.40625 -3.3125 L 3.40625 -32.875 C 3.40625 -33.976562 3.597656 -34.75 3.984375 -35.1875 C 4.378906 -35.625 5.046875 -35.910156 5.984375 -36.046875 C 6.535156 -36.140625 7.296875 -36.226562 8.265625 -36.3125 C 9.242188 -36.394531 10.300781 -36.457031 11.4375 -36.5 C 12.570312 -36.550781 13.65625 -36.578125 14.6875 -36.578125 C 17.769531 -36.578125 20.460938 -36.269531 22.765625 -35.65625 C 25.066406 -35.039062 26.859375 -33.992188 28.140625 -32.515625 C 29.421875 -31.035156 30.0625 -29 30.0625 -26.40625 L 30.0625 -25.53125 C 30.0625 -23.945312 29.703125 -22.519531 28.984375 -21.25 C 28.273438 -19.988281 27.269531 -19.035156 25.96875 -18.390625 C 27.269531 -17.773438 28.316406 -16.84375 29.109375 -15.59375 C 29.898438 -14.34375 30.296875 -12.875 30.296875 -11.1875 Z M 22.03125 -25.140625 L 22.03125 -25.875 C 22.03125 -27.207031 21.535156 -28.1875 20.546875 -28.8125 C 19.554688 -29.445312 17.816406 -29.765625 15.328125 -29.765625 C 15.066406 -29.765625 14.679688 -29.765625 14.171875 -29.765625 C 13.671875 -29.765625 13.175781 -29.765625 12.6875 -29.765625 C 12.207031 -29.765625 11.851562 -29.75 11.625 -29.71875 L 11.625 -21.296875 L 17.078125 -21.296875 C 18.984375 -21.296875 20.285156 -21.675781 20.984375 -22.4375 C 21.679688 -23.207031 22.03125 -24.109375 22.03125 -25.140625 Z M 22.234375 -10.65625 L 22.234375 -11.1875 C 22.234375 -12.351562 21.859375 -13.363281 21.109375 -14.21875 C 20.359375 -15.082031 19.015625 -15.515625 17.078125 -15.515625 L 11.625 -15.515625 L 11.625 -6.421875 C 11.882812 -6.421875 12.289062 -6.421875 12.84375 -6.421875 C 13.394531 -6.421875 13.9375 -6.410156 14.46875 -6.390625 C 15 -6.378906 15.378906 -6.375 15.609375 -6.375 C 18.109375 -6.375 19.835938 -6.742188 20.796875 -7.484375 C 21.753906 -8.234375 22.234375 -9.289062 22.234375 -10.65625 Z M 22.234375 -10.65625 "/></g></g></g><g fill="#ffffff" fill-opacity="1"><g transform="translate(144.08657, 289.435059)"><g><path d="M 24.171875 -1.21875 C 24.171875 -0.664062 23.847656 -0.320312 23.203125 -0.1875 C 22.679688 -0.09375 21.957031 0 21.03125 0.09375 C 20.113281 0.195312 19.144531 0.28125 18.125 0.34375 C 17.101562 0.40625 16.148438 0.4375 15.265625 0.4375 C 13.710938 0.4375 12.222656 0.296875 10.796875 0.015625 C 9.367188 -0.253906 8.09375 -0.753906 6.96875 -1.484375 C 5.851562 -2.210938 4.976562 -3.265625 4.34375 -4.640625 C 3.71875 -6.023438 3.40625 -7.816406 3.40625 -10.015625 L 3.40625 -35.171875 C 3.40625 -35.429688 3.5 -35.65625 3.6875 -35.84375 C 3.882812 -36.039062 4.113281 -36.140625 4.375 -36.140625 L 10.75 -36.140625 C 11.007812 -36.140625 11.234375 -36.039062 11.421875 -35.84375 C 11.617188 -35.65625 11.71875 -35.429688 11.71875 -35.171875 L 11.71875 -10.015625 C 11.71875 -8.753906 11.953125 -7.890625 12.421875 -7.421875 C 12.898438 -6.953125 13.703125 -6.71875 14.828125 -6.71875 L 23.203125 -6.71875 C 23.460938 -6.71875 23.6875 -6.617188 23.875 -6.421875 C 24.070312 -6.222656 24.171875 -5.992188 24.171875 -5.734375 Z M 24.171875 -1.21875 "/></g></g></g><g fill="#ffffff" fill-opacity="1"><g transform="translate(169.326959, 289.435059)"><g><path d="M 11.71875 -0.96875 C 11.71875 -0.707031 11.628906 -0.476562 11.453125 -0.28125 C 11.273438 -0.09375 11.054688 0 10.796875 0 L 4.28125 0 C 4.019531 0 3.804688 -0.09375 3.640625 -0.28125 C 3.484375 -0.476562 3.40625 -0.707031 3.40625 -0.96875 L 3.40625 -35.21875 C 3.40625 -35.832031 3.695312 -36.140625 4.28125 -36.140625 L 10.796875 -36.140625 C 11.410156 -36.140625 11.71875 -35.832031 11.71875 -35.21875 Z M 11.71875 -0.96875 "/></g></g></g><g fill="#ffffff" fill-opacity="1"><g transform="translate(184.451744, 289.435059)"><g><path d="M 26.5625 -10.21875 C 26.5625 -8.914062 26.320312 -7.640625 25.84375 -6.390625 C 25.375 -5.148438 24.628906 -4.007812 23.609375 -2.96875 C 22.585938 -1.925781 21.222656 -1.097656 19.515625 -0.484375 C 17.816406 0.128906 15.738281 0.4375 13.28125 0.4375 C 11.363281 0.4375 9.660156 0.335938 8.171875 0.140625 C 6.679688 -0.046875 5.316406 -0.300781 4.078125 -0.625 C 3.859375 -0.695312 3.640625 -0.8125 3.421875 -0.96875 C 3.210938 -1.132812 3.109375 -1.347656 3.109375 -1.609375 L 3.109375 -6.375 C 3.109375 -6.988281 3.398438 -7.296875 3.984375 -7.296875 C 4.015625 -7.296875 4.035156 -7.296875 4.046875 -7.296875 C 4.066406 -7.296875 4.097656 -7.296875 4.140625 -7.296875 C 4.617188 -7.265625 5.28125 -7.207031 6.125 -7.125 C 6.96875 -7.039062 7.859375 -6.972656 8.796875 -6.921875 C 9.742188 -6.878906 10.617188 -6.832031 11.421875 -6.78125 C 12.234375 -6.738281 12.882812 -6.71875 13.375 -6.71875 C 15.0625 -6.71875 16.203125 -6.988281 16.796875 -7.53125 C 17.398438 -8.082031 17.703125 -8.945312 17.703125 -10.125 C 17.703125 -10.832031 17.484375 -11.4375 17.046875 -11.9375 C 16.609375 -12.4375 15.757812 -13.0625 14.5 -13.8125 L 7.78125 -17.796875 C 5.507812 -19.128906 3.984375 -20.566406 3.203125 -22.109375 C 2.429688 -23.648438 2.046875 -25.3125 2.046875 -27.09375 C 2.046875 -28.875 2.425781 -30.476562 3.1875 -31.90625 C 3.945312 -33.332031 5.234375 -34.46875 7.046875 -35.3125 C 8.867188 -36.15625 11.351562 -36.578125 14.5 -36.578125 C 15.695312 -36.578125 16.972656 -36.519531 18.328125 -36.40625 C 19.691406 -36.289062 20.957031 -36.148438 22.125 -35.984375 C 23.289062 -35.828125 24.1875 -35.664062 24.8125 -35.5 C 25 -35.46875 25.164062 -35.378906 25.3125 -35.234375 C 25.457031 -35.085938 25.53125 -34.882812 25.53125 -34.625 L 25.53125 -29.71875 C 25.53125 -29.488281 25.472656 -29.289062 25.359375 -29.125 C 25.253906 -28.96875 25.035156 -28.890625 24.703125 -28.890625 C 24.703125 -28.890625 24.691406 -28.890625 24.671875 -28.890625 C 24.660156 -28.890625 24.640625 -28.890625 24.609375 -28.890625 C 24.285156 -28.921875 23.71875 -28.960938 22.90625 -29.015625 C 22.09375 -29.066406 21.179688 -29.125 20.171875 -29.1875 C 19.171875 -29.25 18.148438 -29.300781 17.109375 -29.34375 C 16.078125 -29.394531 15.140625 -29.421875 14.296875 -29.421875 C 12.898438 -29.421875 11.914062 -29.207031 11.34375 -28.78125 C 10.78125 -28.363281 10.5 -27.71875 10.5 -26.84375 C 10.5 -26.164062 10.71875 -25.609375 11.15625 -25.171875 C 11.59375 -24.734375 12.460938 -24.15625 13.765625 -23.4375 L 19.984375 -20.09375 C 22.515625 -18.726562 24.242188 -17.234375 25.171875 -15.609375 C 26.097656 -13.992188 26.5625 -12.195312 26.5625 -10.21875 Z M 26.5625 -10.21875 "/></g></g></g><g fill="#ffffff" fill-opacity="1"><g transform="translate(213.047793, 289.435059)"><g><path d="M 32.046875 -0.96875 C 32.046875 -0.707031 31.945312 -0.476562 31.75 -0.28125 C 31.5625 -0.09375 31.335938 0 31.078125 0 L 24.703125 0 C 24.453125 0 24.226562 -0.09375 24.03125 -0.28125 C 23.832031 -0.476562 23.734375 -0.707031 23.734375 -0.96875 L 23.734375 -15.03125 L 11.71875 -15.03125 L 11.71875 -0.96875 C 11.71875 -0.707031 11.617188 -0.476562 11.421875 -0.28125 C 11.234375 -0.09375 11.007812 0 10.75 0 L 4.375 0 C 4.113281 0 3.882812 -0.09375 3.6875 -0.28125 C 3.5 -0.476562 3.40625 -0.707031 3.40625 -0.96875 L 3.40625 -35.21875 C 3.40625 -35.476562 3.5 -35.695312 3.6875 -35.875 C 3.882812 -36.050781 4.113281 -36.140625 4.375 -36.140625 L 10.75 -36.140625 C 11.007812 -36.140625 11.234375 -36.050781 11.421875 -35.875 C 11.617188 -35.695312 11.71875 -35.476562 11.71875 -35.21875 L 11.71875 -22.28125 L 23.734375 -22.28125 L 23.734375 -35.21875 C 23.734375 -35.476562 23.832031 -35.695312 24.03125 -35.875 C 24.226562 -36.050781 24.453125 -36.140625 24.703125 -36.140625 L 31.078125 -36.140625 C 31.335938 -36.140625 31.5625 -36.050781 31.75 -35.875 C 31.945312 -35.695312 32.046875 -35.476562 32.046875 -35.21875 Z M 32.046875 -0.96875 "/></g></g></g><g fill="#ffffff" fill-opacity="1"><g transform="translate(248.501072, 289.435059)"><g><path d="M 11.71875 -0.96875 C 11.71875 -0.707031 11.628906 -0.476562 11.453125 -0.28125 C 11.273438 -0.09375 11.054688 0 10.796875 0 L 4.28125 0 C 4.019531 0 3.804688 -0.09375 3.640625 -0.28125 C 3.484375 -0.476562 3.40625 -0.707031 3.40625 -0.96875 L 3.40625 -35.21875 C 3.40625 -35.832031 3.695312 -36.140625 4.28125 -36.140625 L 10.796875 -36.140625 C 11.410156 -36.140625 11.71875 -35.832031 11.71875 -35.21875 Z M 11.71875 -0.96875 "/></g></g></g><g fill="#ffffff" fill-opacity="1"><g transform="translate(263.625857, 289.435059)"><g><path d="M 31.515625 -0.96875 C 31.515625 -0.707031 31.425781 -0.476562 31.25 -0.28125 C 31.070312 -0.09375 30.851562 0 30.59375 0 L 24.078125 0 C 23.816406 0 23.601562 -0.09375 23.4375 -0.28125 C 23.28125 -0.476562 23.203125 -0.707031 23.203125 -0.96875 L 23.203125 -22.671875 C 23.203125 -24.484375 23 -25.875 22.59375 -26.84375 C 22.1875 -27.820312 21.550781 -28.492188 20.6875 -28.859375 C 19.832031 -29.234375 18.738281 -29.421875 17.40625 -29.421875 C 16.40625 -29.421875 15.394531 -29.394531 14.375 -29.34375 C 13.351562 -29.300781 12.46875 -29.234375 11.71875 -29.140625 L 11.71875 -0.96875 C 11.71875 -0.707031 11.628906 -0.476562 11.453125 -0.28125 C 11.273438 -0.09375 11.054688 0 10.796875 0 L 4.328125 0 C 4.066406 0 3.847656 -0.09375 3.671875 -0.28125 C 3.492188 -0.476562 3.40625 -0.707031 3.40625 -0.96875 L 3.40625 -32.734375 C 3.40625 -33.835938 3.582031 -34.582031 3.9375 -34.96875 C 4.289062 -35.363281 4.941406 -35.625 5.890625 -35.75 C 6.765625 -35.882812 7.875 -36.015625 9.21875 -36.140625 C 10.5625 -36.265625 11.90625 -36.367188 13.25 -36.453125 C 14.59375 -36.535156 15.671875 -36.578125 16.484375 -36.578125 C 18.859375 -36.578125 20.96875 -36.375 22.8125 -35.96875 C 24.65625 -35.5625 26.222656 -34.851562 27.515625 -33.84375 C 28.816406 -32.84375 29.804688 -31.429688 30.484375 -29.609375 C 31.171875 -27.796875 31.515625 -25.484375 31.515625 -22.671875 Z M 31.515625 -0.96875 "/></g></g></g><g fill="#ffffff" fill-opacity="1"><g transform="translate(298.544159, 289.435059)"><g><path d="M 28.21875 -29.578125 C 28.21875 -29.316406 28.148438 -29.144531 28.015625 -29.0625 C 27.890625 -28.976562 27.710938 -28.9375 27.484375 -28.9375 C 27.453125 -28.9375 27.425781 -28.9375 27.40625 -28.9375 C 27.394531 -28.9375 27.375 -28.9375 27.34375 -28.9375 C 26.164062 -29 24.703125 -29.078125 22.953125 -29.171875 C 21.203125 -29.273438 19.289062 -29.328125 17.21875 -29.328125 C 15.914062 -29.328125 14.785156 -29.082031 13.828125 -28.59375 C 12.878906 -28.113281 12.144531 -27.269531 11.625 -26.0625 C 11.101562 -24.863281 10.84375 -23.195312 10.84375 -21.0625 L 10.84375 -14.984375 C 10.84375 -12.742188 11.132812 -11.023438 11.71875 -9.828125 C 12.300781 -8.628906 13.015625 -7.8125 13.859375 -7.375 C 14.703125 -6.9375 15.515625 -6.71875 16.296875 -6.71875 C 17.617188 -6.71875 18.867188 -6.765625 20.046875 -6.859375 L 20.046875 -18.046875 C 20.046875 -18.304688 20.132812 -18.53125 20.3125 -18.71875 C 20.488281 -18.914062 20.707031 -19.015625 20.96875 -19.015625 L 27.1875 -19.015625 C 27.445312 -19.015625 27.671875 -18.914062 27.859375 -18.71875 C 28.054688 -18.53125 28.15625 -18.304688 28.15625 -18.046875 L 28.15625 -1.703125 C 28.15625 -1.085938 27.832031 -0.710938 27.1875 -0.578125 C 25.894531 -0.316406 24.363281 -0.0820312 22.59375 0.125 C 20.820312 0.332031 18.722656 0.4375 16.296875 0.4375 C 14.898438 0.4375 13.40625 0.203125 11.8125 -0.265625 C 10.226562 -0.734375 8.722656 -1.535156 7.296875 -2.671875 C 5.867188 -3.804688 4.703125 -5.378906 3.796875 -7.390625 C 2.890625 -9.398438 2.4375 -11.945312 2.4375 -15.03125 L 2.4375 -21.0625 C 2.4375 -24.175781 2.863281 -26.738281 3.71875 -28.75 C 4.582031 -30.757812 5.734375 -32.332031 7.171875 -33.46875 C 8.617188 -34.601562 10.21875 -35.40625 11.96875 -35.875 C 13.71875 -36.34375 15.46875 -36.578125 17.21875 -36.578125 C 19.644531 -36.578125 21.71875 -36.4375 23.4375 -36.15625 C 25.15625 -35.882812 26.472656 -35.648438 27.390625 -35.453125 C 27.941406 -35.359375 28.21875 -35.117188 28.21875 -34.734375 Z M 28.21875 -29.578125 "/></g></g></g><g fill="#ffffff" fill-opacity="1"><g transform="translate(100.323901, 317.58039)"><g><path d="M 5.859375 -8.296875 L 7.59375 -8.296875 L 7.59375 -2.8125 C 7.59375 -2.1875 7.445312 -1.65625 7.15625 -1.21875 C 6.863281 -0.78125 6.457031 -0.445312 5.9375 -0.21875 C 5.425781 0.0078125 4.832031 0.125 4.15625 0.125 C 3.488281 0.125 2.894531 0.0078125 2.375 -0.21875 C 1.851562 -0.445312 1.445312 -0.78125 1.15625 -1.21875 C 0.863281 -1.65625 0.71875 -2.1875 0.71875 -2.8125 L 0.71875 -8.296875 L 2.46875 -8.296875 L 2.46875 -2.875 C 2.46875 -2.425781 2.628906 -2.078125 2.953125 -1.828125 C 3.273438 -1.578125 3.675781 -1.453125 4.15625 -1.453125 C 4.644531 -1.453125 5.050781 -1.578125 5.375 -1.828125 C 5.695312 -2.078125 5.859375 -2.425781 5.859375 -2.875 Z M 5.859375 -8.296875 "/></g></g></g><g fill="#ffffff" fill-opacity="1"><g transform="translate(112.052794, 317.58039)"><g><path d="M 0.71875 0 L 0.71875 -8.296875 L 4 -8.296875 C 4.625 -8.296875 5.15625 -8.175781 5.59375 -7.9375 C 6.039062 -7.695312 6.378906 -7.363281 6.609375 -6.9375 C 6.847656 -6.519531 6.96875 -6.035156 6.96875 -5.484375 C 6.96875 -4.929688 6.847656 -4.441406 6.609375 -4.015625 C 6.367188 -3.597656 6.023438 -3.269531 5.578125 -3.03125 C 5.128906 -2.800781 4.585938 -2.6875 3.953125 -2.6875 L 2.46875 -2.6875 L 2.46875 0 Z M 2.46875 -4.09375 L 3.671875 -4.09375 C 4.171875 -4.09375 4.539062 -4.222656 4.78125 -4.484375 C 5.03125 -4.742188 5.15625 -5.078125 5.15625 -5.484375 C 5.15625 -5.898438 5.03125 -6.234375 4.78125 -6.484375 C 4.539062 -6.734375 4.164062 -6.859375 3.65625 -6.859375 L 2.46875 -6.859375 Z M 2.46875 -4.09375 "/></g></g></g><g fill="#ffffff" fill-opacity="1"><g transform="translate(122.85135, 317.58039)"><g><path d="M 0.71875 0 L 0.71875 -8.296875 L 2.46875 -8.296875 L 2.46875 -1.453125 L 6.03125 -1.453125 L 6.03125 0 Z M 0.71875 0 "/></g></g></g><g fill="#ffffff" fill-opacity="1"><g transform="translate(132.735742, 317.58039)"><g><path d="M 8.34375 -4.140625 C 8.34375 -3.242188 8.171875 -2.476562 7.828125 -1.84375 C 7.484375 -1.207031 7.019531 -0.722656 6.4375 -0.390625 C 5.851562 -0.0546875 5.191406 0.109375 4.453125 0.109375 C 3.722656 0.109375 3.0625 -0.0546875 2.46875 -0.390625 C 1.882812 -0.722656 1.421875 -1.207031 1.078125 -1.84375 C 0.742188 -2.476562 0.578125 -3.242188 0.578125 -4.140625 C 0.578125 -5.046875 0.742188 -5.816406 1.078125 -6.453125 C 1.421875 -7.085938 1.882812 -7.570312 2.46875 -7.90625 C 3.0625 -8.238281 3.722656 -8.40625 4.453125 -8.40625 C 5.191406 -8.40625 5.851562 -8.238281 6.4375 -7.90625 C 7.019531 -7.570312 7.484375 -7.085938 7.828125 -6.453125 C 8.171875 -5.816406 8.34375 -5.046875 8.34375 -4.140625 Z M 6.5625 -4.140625 C 6.5625 -5.023438 6.367188 -5.695312 5.984375 -6.15625 C 5.609375 -6.625 5.097656 -6.859375 4.453125 -6.859375 C 3.816406 -6.859375 3.304688 -6.625 2.921875 -6.15625 C 2.546875 -5.695312 2.359375 -5.023438 2.359375 -4.140625 C 2.359375 -3.265625 2.546875 -2.59375 2.921875 -2.125 C 3.304688 -1.664062 3.816406 -1.4375 4.453125 -1.4375 C 5.097656 -1.4375 5.609375 -1.664062 5.984375 -2.125 C 6.367188 -2.59375 6.5625 -3.265625 6.5625 -4.140625 Z M 6.5625 -4.140625 "/></g></g></g><g fill="#ffffff" fill-opacity="1"><g transform="translate(145.063285, 317.58039)"><g><path d="M 2.15625 0 L 0.265625 0 L 3.140625 -8.296875 L 5.390625 -8.296875 L 8.25 0 L 6.375 0 L 5.765625 -1.890625 L 2.765625 -1.890625 Z M 3.21875 -3.265625 L 5.3125 -3.265625 L 4.296875 -6.40625 L 4.234375 -6.40625 Z M 3.21875 -3.265625 "/></g></g></g><g fill="#ffffff" fill-opacity="1"><g transform="translate(157.002507, 317.58039)"><g><path d="M 3.65625 0 L 0.71875 0 L 0.71875 -8.296875 L 3.6875 -8.296875 C 4.519531 -8.296875 5.238281 -8.128906 5.84375 -7.796875 C 6.445312 -7.460938 6.910156 -6.988281 7.234375 -6.375 C 7.554688 -5.757812 7.71875 -5.019531 7.71875 -4.15625 C 7.71875 -3.289062 7.554688 -2.546875 7.234375 -1.921875 C 6.910156 -1.304688 6.441406 -0.832031 5.828125 -0.5 C 5.222656 -0.164062 4.5 0 3.65625 0 Z M 2.46875 -1.5 L 3.59375 -1.5 C 4.375 -1.5 4.960938 -1.707031 5.359375 -2.125 C 5.765625 -2.550781 5.96875 -3.226562 5.96875 -4.15625 C 5.96875 -5.070312 5.765625 -5.738281 5.359375 -6.15625 C 4.960938 -6.582031 4.375 -6.796875 3.59375 -6.796875 L 2.46875 -6.796875 Z M 2.46875 -1.5 "/></g></g></g><g fill="#ffffff" fill-opacity="1"><g transform="translate(168.707129, 317.58039)"><g/></g></g><g fill="#ffffff" fill-opacity="1"><g transform="translate(174.769047, 317.58039)"><g><path d="M 0.71875 0 L 0.71875 -8.296875 L 6.21875 -8.296875 L 6.21875 -6.84375 L 2.46875 -6.84375 L 2.46875 -4.875 L 5.84375 -4.875 L 5.84375 -3.421875 L 2.46875 -3.421875 L 2.46875 0 Z M 0.71875 0 "/></g></g></g><g fill="#ffffff" fill-opacity="1"><g transform="translate(184.85164, 317.58039)"><g><path d="M 2.46875 -8.296875 L 2.46875 0 L 0.71875 0 L 0.71875 -8.296875 Z M 2.46875 -8.296875 "/></g></g></g><g fill="#ffffff" fill-opacity="1"><g transform="translate(191.467715, 317.58039)"><g><path d="M 0.71875 0 L 0.71875 -8.296875 L 2.46875 -8.296875 L 2.46875 -1.453125 L 6.03125 -1.453125 L 6.03125 0 Z M 0.71875 0 "/></g></g></g><g fill="#ffffff" fill-opacity="1"><g transform="translate(201.352108, 317.58039)"><g><path d="M 0.71875 0 L 0.71875 -8.296875 L 6.3125 -8.296875 L 6.3125 -6.84375 L 2.46875 -6.84375 L 2.46875 -4.875 L 6.015625 -4.875 L 6.015625 -3.421875 L 2.46875 -3.421875 L 2.46875 -1.453125 L 6.328125 -1.453125 L 6.328125 0 Z M 0.71875 0 "/></g></g></g><g fill="#ffffff" fill-opacity="1"><g transform="translate(211.750209, 317.58039)"><g/></g></g><g fill="#ffffff" fill-opacity="1"><g transform="translate(217.812121, 317.58039)"><g><path d="M 3.234375 0.125 C 2.660156 0.125 2.164062 0.0195312 1.75 -0.1875 C 1.332031 -0.394531 1.007812 -0.671875 0.78125 -1.015625 C 0.5625 -1.367188 0.453125 -1.765625 0.453125 -2.203125 C 0.453125 -2.679688 0.59375 -3.082031 0.875 -3.40625 C 1.15625 -3.738281 1.519531 -4.0625 1.96875 -4.375 C 1.75 -4.644531 1.5625 -4.9375 1.40625 -5.25 C 1.25 -5.5625 1.171875 -5.90625 1.171875 -6.28125 C 1.171875 -6.675781 1.265625 -7.035156 1.453125 -7.359375 C 1.648438 -7.679688 1.914062 -7.9375 2.25 -8.125 C 2.59375 -8.3125 2.988281 -8.40625 3.4375 -8.40625 C 3.882812 -8.40625 4.269531 -8.316406 4.59375 -8.140625 C 4.914062 -7.960938 5.160156 -7.722656 5.328125 -7.421875 C 5.503906 -7.128906 5.59375 -6.804688 5.59375 -6.453125 C 5.59375 -6.054688 5.492188 -5.695312 5.296875 -5.375 C 5.109375 -5.0625 4.84375 -4.78125 4.5 -4.53125 L 4.015625 -4.1875 L 5.375 -2.609375 C 5.488281 -2.816406 5.578125 -3.039062 5.640625 -3.28125 C 5.703125 -3.519531 5.734375 -3.773438 5.734375 -4.046875 L 7.15625 -4.046875 C 7.15625 -3.484375 7.085938 -2.984375 6.953125 -2.546875 C 6.816406 -2.109375 6.632812 -1.738281 6.40625 -1.4375 L 7.65625 0 L 5.859375 0 L 5.359375 -0.5625 C 5.046875 -0.320312 4.703125 -0.144531 4.328125 -0.03125 C 3.960938 0.0703125 3.597656 0.125 3.234375 0.125 Z M 4.421875 -1.59375 L 2.84375 -3.34375 L 2.796875 -3.3125 C 2.566406 -3.144531 2.394531 -2.972656 2.28125 -2.796875 C 2.175781 -2.628906 2.125 -2.460938 2.125 -2.296875 C 2.125 -2.003906 2.234375 -1.757812 2.453125 -1.5625 C 2.671875 -1.363281 2.957031 -1.265625 3.3125 -1.265625 C 3.695312 -1.265625 4.066406 -1.375 4.421875 -1.59375 Z M 3.171875 -5.171875 L 3.609375 -5.453125 C 4.015625 -5.710938 4.21875 -6.007812 4.21875 -6.34375 C 4.21875 -6.507812 4.148438 -6.660156 4.015625 -6.796875 C 3.878906 -6.941406 3.691406 -7.015625 3.453125 -7.015625 C 3.210938 -7.015625 3.019531 -6.9375 2.875 -6.78125 C 2.726562 -6.632812 2.65625 -6.457031 2.65625 -6.25 C 2.65625 -6.070312 2.703125 -5.894531 2.796875 -5.71875 C 2.898438 -5.539062 3.023438 -5.359375 3.171875 -5.171875 Z M 3.171875 -5.171875 "/></g></g></g><g fill="#ffffff" fill-opacity="1"><g transform="translate(228.909994, 317.58039)"><g/></g></g><g fill="#ffffff" fill-opacity="1"><g transform="translate(234.971906, 317.58039)"><g><path d="M 5.21875 -5.90625 C 5.1875 -6.238281 5.046875 -6.492188 4.796875 -6.671875 C 4.554688 -6.847656 4.222656 -6.9375 3.796875 -6.9375 C 3.367188 -6.9375 3.039062 -6.847656 2.8125 -6.671875 C 2.582031 -6.503906 2.46875 -6.285156 2.46875 -6.015625 C 2.46875 -5.710938 2.597656 -5.484375 2.859375 -5.328125 C 3.117188 -5.179688 3.425781 -5.066406 3.78125 -4.984375 L 4.53125 -4.8125 C 5.007812 -4.695312 5.4375 -4.535156 5.8125 -4.328125 C 6.1875 -4.128906 6.476562 -3.867188 6.6875 -3.546875 C 6.90625 -3.222656 7.015625 -2.832031 7.015625 -2.375 C 7.015625 -1.613281 6.726562 -1.003906 6.15625 -0.546875 C 5.59375 -0.0976562 4.804688 0.125 3.796875 0.125 C 2.785156 0.125 1.976562 -0.101562 1.375 -0.5625 C 0.78125 -1.03125 0.472656 -1.710938 0.453125 -2.609375 L 2.15625 -2.609375 C 2.1875 -2.191406 2.347656 -1.878906 2.640625 -1.671875 C 2.941406 -1.460938 3.320312 -1.359375 3.78125 -1.359375 C 4.21875 -1.359375 4.566406 -1.453125 4.828125 -1.640625 C 5.097656 -1.828125 5.238281 -2.070312 5.25 -2.375 C 5.238281 -2.65625 5.113281 -2.867188 4.875 -3.015625 C 4.632812 -3.171875 4.285156 -3.300781 3.828125 -3.40625 L 2.9375 -3.640625 C 2.238281 -3.804688 1.6875 -4.070312 1.28125 -4.4375 C 0.875 -4.800781 0.671875 -5.285156 0.671875 -5.890625 C 0.671875 -6.398438 0.804688 -6.84375 1.078125 -7.21875 C 1.347656 -7.59375 1.71875 -7.882812 2.1875 -8.09375 C 2.664062 -8.300781 3.207031 -8.40625 3.8125 -8.40625 C 4.425781 -8.40625 4.960938 -8.300781 5.421875 -8.09375 C 5.890625 -7.882812 6.25 -7.59375 6.5 -7.21875 C 6.757812 -6.84375 6.894531 -6.40625 6.90625 -5.90625 Z M 5.21875 -5.90625 "/></g></g></g><g fill="#ffffff" fill-opacity="1"><g transform="translate(245.851357, 317.58039)"><g><path d="M 2.15625 0 L 0.265625 0 L 3.140625 -8.296875 L 5.390625 -8.296875 L 8.25 0 L 6.375 0 L 5.765625 -1.890625 L 2.765625 -1.890625 Z M 3.21875 -3.265625 L 5.3125 -3.265625 L 4.296875 -6.40625 L 4.234375 -6.40625 Z M 3.21875 -3.265625 "/></g></g></g><g fill="#ffffff" fill-opacity="1"><g transform="translate(257.790577, 317.58039)"><g><path d="M 0.71875 0 L 0.71875 -8.296875 L 2.46875 -8.296875 L 2.46875 -1.453125 L 6.03125 -1.453125 L 6.03125 0 Z M 0.71875 0 "/></g></g></g><g fill="#ffffff" fill-opacity="1"><g transform="translate(267.674964, 317.58039)"><g><path d="M 0.71875 0 L 0.71875 -8.296875 L 6.3125 -8.296875 L 6.3125 -6.84375 L 2.46875 -6.84375 L 2.46875 -4.875 L 6.015625 -4.875 L 6.015625 -3.421875 L 2.46875 -3.421875 L 2.46875 -1.453125 L 6.328125 -1.453125 L 6.328125 0 Z M 0.71875 0 "/></g></g></g><g clip-path="url(#8d85034283)"><path fill="#ffffff" d="M 220.445312 195.941406 L 95.75 195.941406 L 108.25 157.964844 L 224.785156 157.964844 L 248.1875 85.613281 L 131.652344 85.613281 L 144.152344 47.636719 L 268.847656 47.636719 C 288.210938 47.636719 298.742188 63.335938 292.367188 82.699219 L 267.046875 160.878906 C 260.675781 180.242188 239.808594 195.941406 220.445312 195.941406 Z M 181.417969 102.800781 L 88.753906 102.800781 L 76.253906 140.777344 L 168.914062 140.777344 Z M 181.417969 102.800781 " fill-opacity="1" fill-rule="nonzero"/></g><path stroke-linecap="butt" transform="matrix(0.800871, -2.407622, 2.407622, 0.800871, 151.929722, 198.786256)" fill="none" stroke-linejoin="miter" d="M -0.000317952 3.499719 L 20.353351 3.499771 " stroke="#1b2479" stroke-width="7" stroke-opacity="1" stroke-miterlimit="4"/></svg>