<svg xmlns="http://www.w3.org/2000/svg" xmlns:xlink="http://www.w3.org/1999/xlink" width="500" zoomAndPan="magnify" viewBox="0 0 375 374.999991" height="500" preserveAspectRatio="xMidYMid meet" version="1.0"><defs><g/><clipPath id="b30692ac6b"><path d="M 37.5 158.613281 L 118 158.613281 L 118 213.742188 L 37.5 213.742188 Z M 37.5 158.613281 " clip-rule="nonzero"/></clipPath></defs><rect x="-37.5" width="450" fill="#ffffff" y="-37.499999" height="449.999989" fill-opacity="1"/><rect x="-37.5" width="450" fill="#ffffff" y="-37.499999" height="449.999989" fill-opacity="1"/><g fill="#1b2479" fill-opacity="1"><g transform="translate(135.373426, 189.912274)"><g><path d="M 21.140625 -17.171875 C 21.140625 -15.578125 20.851562 -14.242188 20.28125 -13.171875 C 19.71875 -12.097656 18.945312 -11.25 17.96875 -10.625 C 16.988281 -10 15.890625 -9.550781 14.671875 -9.28125 C 13.460938 -9.019531 12.222656 -8.890625 10.953125 -8.890625 C 10.535156 -8.890625 10.078125 -8.898438 9.578125 -8.921875 C 9.078125 -8.953125 8.609375 -8.976562 8.171875 -9 L 8.171875 -0.6875 C 8.171875 -0.5 8.101562 -0.335938 7.96875 -0.203125 C 7.832031 -0.0664062 7.675781 0 7.5 0 L 3.078125 0 C 2.898438 0 2.738281 -0.0625 2.59375 -0.1875 C 2.457031 -0.3125 2.390625 -0.46875 2.390625 -0.65625 L 2.390625 -23.640625 C 2.390625 -24.234375 2.515625 -24.632812 2.765625 -24.84375 C 3.015625 -25.050781 3.40625 -25.195312 3.9375 -25.28125 C 4.800781 -25.425781 5.863281 -25.535156 7.125 -25.609375 C 8.394531 -25.691406 9.644531 -25.734375 10.875 -25.734375 C 12.175781 -25.734375 13.4375 -25.601562 14.65625 -25.34375 C 15.882812 -25.082031 16.984375 -24.640625 17.953125 -24.015625 C 18.921875 -23.398438 19.691406 -22.5625 20.265625 -21.5 C 20.847656 -20.445312 21.140625 -19.109375 21.140625 -17.484375 Z M 15.328125 -17.171875 L 15.328125 -17.484375 C 15.328125 -18.691406 14.957031 -19.554688 14.21875 -20.078125 C 13.476562 -20.609375 12.390625 -20.875 10.953125 -20.875 C 10.785156 -20.875 10.507812 -20.867188 10.125 -20.859375 C 9.738281 -20.847656 9.351562 -20.835938 8.96875 -20.828125 C 8.582031 -20.816406 8.316406 -20.796875 8.171875 -20.765625 L 8.171875 -13.796875 C 8.316406 -13.796875 8.585938 -13.785156 8.984375 -13.765625 C 9.378906 -13.753906 9.773438 -13.742188 10.171875 -13.734375 C 10.578125 -13.722656 10.835938 -13.71875 10.953125 -13.71875 C 12.484375 -13.71875 13.59375 -14.003906 14.28125 -14.578125 C 14.976562 -15.148438 15.328125 -16.015625 15.328125 -17.171875 Z M 15.328125 -17.171875 "/></g></g></g><g fill="#1b2479" fill-opacity="1"><g transform="translate(157.647769, 189.912274)"><g><path d="M 22.109375 -2.640625 C 22.109375 -1.796875 21.945312 -1.21875 21.625 -0.90625 C 21.300781 -0.59375 20.773438 -0.382812 20.046875 -0.28125 C 19.703125 -0.226562 19.210938 -0.164062 18.578125 -0.09375 C 17.941406 -0.03125 17.242188 0.0234375 16.484375 0.078125 C 15.734375 0.140625 15.007812 0.191406 14.3125 0.234375 C 13.625 0.285156 13.050781 0.3125 12.59375 0.3125 C 11.082031 0.3125 9.695312 0.164062 8.4375 -0.125 C 7.1875 -0.425781 6.109375 -0.9375 5.203125 -1.65625 C 4.304688 -2.375 3.613281 -3.367188 3.125 -4.640625 C 2.632812 -5.921875 2.390625 -7.535156 2.390625 -9.484375 L 2.390625 -24.78125 C 2.390625 -24.957031 2.457031 -25.109375 2.59375 -25.234375 C 2.738281 -25.359375 2.898438 -25.421875 3.078125 -25.421875 L 7.5625 -25.421875 C 7.75 -25.421875 7.910156 -25.359375 8.046875 -25.234375 C 8.179688 -25.109375 8.25 -24.957031 8.25 -24.78125 L 8.25 -9.484375 C 8.25 -7.742188 8.53125 -6.488281 9.09375 -5.71875 C 9.664062 -4.957031 10.71875 -4.578125 12.25 -4.578125 C 12.84375 -4.578125 13.515625 -4.597656 14.265625 -4.640625 C 15.023438 -4.691406 15.6875 -4.753906 16.25 -4.828125 L 16.25 -24.78125 C 16.25 -24.957031 16.316406 -25.109375 16.453125 -25.234375 C 16.597656 -25.359375 16.757812 -25.421875 16.9375 -25.421875 L 21.390625 -25.421875 C 21.566406 -25.421875 21.726562 -25.359375 21.875 -25.234375 C 22.03125 -25.109375 22.109375 -24.957031 22.109375 -24.78125 Z M 22.109375 -2.640625 "/></g></g></g><g fill="#1b2479" fill-opacity="1"><g transform="translate(182.146124, 189.912274)"><g><path d="M 21.3125 -7.359375 C 21.3125 -5.847656 21.03125 -4.597656 20.46875 -3.609375 C 19.914062 -2.617188 19.144531 -1.835938 18.15625 -1.265625 C 17.164062 -0.691406 16.019531 -0.285156 14.71875 -0.046875 C 13.414062 0.191406 12.023438 0.3125 10.546875 0.3125 C 9.421875 0.3125 8.257812 0.269531 7.0625 0.1875 C 5.863281 0.101562 4.9375 0.00390625 4.28125 -0.109375 C 3.59375 -0.222656 3.101562 -0.425781 2.8125 -0.71875 C 2.53125 -1.007812 2.390625 -1.546875 2.390625 -2.328125 L 2.390625 -23.125 C 2.390625 -23.90625 2.523438 -24.445312 2.796875 -24.75 C 3.078125 -25.0625 3.546875 -25.265625 4.203125 -25.359375 C 4.597656 -25.421875 5.132812 -25.476562 5.8125 -25.53125 C 6.5 -25.59375 7.238281 -25.640625 8.03125 -25.671875 C 8.832031 -25.710938 9.597656 -25.734375 10.328125 -25.734375 C 12.492188 -25.734375 14.382812 -25.515625 16 -25.078125 C 17.625 -24.648438 18.882812 -23.914062 19.78125 -22.875 C 20.6875 -21.832031 21.140625 -20.398438 21.140625 -18.578125 L 21.140625 -17.96875 C 21.140625 -16.84375 20.890625 -15.835938 20.390625 -14.953125 C 19.890625 -14.066406 19.179688 -13.394531 18.265625 -12.9375 C 19.179688 -12.5 19.914062 -11.84375 20.46875 -10.96875 C 21.03125 -10.09375 21.3125 -9.0625 21.3125 -7.875 Z M 15.5 -17.6875 L 15.5 -18.203125 C 15.5 -19.140625 15.148438 -19.828125 14.453125 -20.265625 C 13.753906 -20.710938 12.53125 -20.9375 10.78125 -20.9375 C 10.59375 -20.9375 10.320312 -20.9375 9.96875 -20.9375 C 9.613281 -20.9375 9.265625 -20.9375 8.921875 -20.9375 C 8.585938 -20.9375 8.335938 -20.925781 8.171875 -20.90625 L 8.171875 -14.984375 L 12.015625 -14.984375 C 13.359375 -14.984375 14.273438 -15.25 14.765625 -15.78125 C 15.253906 -16.320312 15.5 -16.957031 15.5 -17.6875 Z M 15.640625 -7.5 L 15.640625 -7.875 C 15.640625 -8.695312 15.375 -9.410156 14.84375 -10.015625 C 14.320312 -10.617188 13.378906 -10.921875 12.015625 -10.921875 L 8.171875 -10.921875 L 8.171875 -4.515625 C 8.359375 -4.515625 8.644531 -4.515625 9.03125 -4.515625 C 9.414062 -4.515625 9.796875 -4.507812 10.171875 -4.5 C 10.554688 -4.488281 10.828125 -4.484375 10.984375 -4.484375 C 12.742188 -4.484375 13.957031 -4.742188 14.625 -5.265625 C 15.300781 -5.796875 15.640625 -6.539062 15.640625 -7.5 Z M 15.640625 -7.5 "/></g></g></g><g fill="#1b2479" fill-opacity="1"><g transform="translate(205.036352, 189.912274)"><g><path d="M 17 -0.859375 C 17 -0.472656 16.773438 -0.234375 16.328125 -0.140625 C 15.960938 -0.0664062 15.453125 0 14.796875 0.0625 C 14.148438 0.132812 13.46875 0.191406 12.75 0.234375 C 12.03125 0.285156 11.363281 0.3125 10.75 0.3125 C 9.65625 0.3125 8.601562 0.210938 7.59375 0.015625 C 6.59375 -0.179688 5.695312 -0.535156 4.90625 -1.046875 C 4.125 -1.554688 3.507812 -2.296875 3.0625 -3.265625 C 2.613281 -4.234375 2.390625 -5.492188 2.390625 -7.046875 L 2.390625 -24.734375 C 2.390625 -24.921875 2.457031 -25.082031 2.59375 -25.21875 C 2.738281 -25.351562 2.898438 -25.421875 3.078125 -25.421875 L 7.5625 -25.421875 C 7.75 -25.421875 7.910156 -25.351562 8.046875 -25.21875 C 8.179688 -25.082031 8.25 -24.921875 8.25 -24.734375 L 8.25 -7.046875 C 8.25 -6.160156 8.410156 -5.550781 8.734375 -5.21875 C 9.066406 -4.882812 9.632812 -4.71875 10.4375 -4.71875 L 16.328125 -4.71875 C 16.503906 -4.71875 16.660156 -4.648438 16.796875 -4.515625 C 16.929688 -4.378906 17 -4.21875 17 -4.03125 Z M 17 -0.859375 "/></g></g></g><g fill="#1b2479" fill-opacity="1"><g transform="translate(222.794239, 189.912274)"><g><path d="M 8.25 -0.6875 C 8.25 -0.5 8.1875 -0.335938 8.0625 -0.203125 C 7.9375 -0.0664062 7.78125 0 7.59375 0 L 3.015625 0 C 2.828125 0 2.675781 -0.0664062 2.5625 -0.203125 C 2.445312 -0.335938 2.390625 -0.5 2.390625 -0.6875 L 2.390625 -24.78125 C 2.390625 -25.207031 2.597656 -25.421875 3.015625 -25.421875 L 7.59375 -25.421875 C 8.03125 -25.421875 8.25 -25.207031 8.25 -24.78125 Z M 8.25 -0.6875 "/></g></g></g><g fill="#1b2479" fill-opacity="1"><g transform="translate(233.435289, 189.912274)"><g><path d="M 18.6875 -7.1875 C 18.6875 -6.269531 18.519531 -5.375 18.1875 -4.5 C 17.851562 -3.625 17.328125 -2.820312 16.609375 -2.09375 C 15.890625 -1.363281 14.929688 -0.78125 13.734375 -0.34375 C 12.535156 0.09375 11.070312 0.3125 9.34375 0.3125 C 8 0.3125 6.800781 0.238281 5.75 0.09375 C 4.695312 -0.0390625 3.738281 -0.21875 2.875 -0.4375 C 2.71875 -0.488281 2.5625 -0.570312 2.40625 -0.6875 C 2.257812 -0.800781 2.1875 -0.945312 2.1875 -1.125 L 2.1875 -4.484375 C 2.1875 -4.921875 2.394531 -5.140625 2.8125 -5.140625 C 2.832031 -5.140625 2.847656 -5.140625 2.859375 -5.140625 C 2.867188 -5.140625 2.882812 -5.140625 2.90625 -5.140625 C 3.25 -5.109375 3.71875 -5.0625 4.3125 -5 C 4.90625 -4.945312 5.53125 -4.90625 6.1875 -4.875 C 6.851562 -4.84375 7.46875 -4.804688 8.03125 -4.765625 C 8.601562 -4.734375 9.0625 -4.71875 9.40625 -4.71875 C 10.59375 -4.71875 11.394531 -4.910156 11.8125 -5.296875 C 12.238281 -5.691406 12.453125 -6.300781 12.453125 -7.125 C 12.453125 -7.625 12.296875 -8.050781 11.984375 -8.40625 C 11.679688 -8.757812 11.085938 -9.195312 10.203125 -9.71875 L 5.46875 -12.53125 C 3.875 -13.457031 2.800781 -14.460938 2.25 -15.546875 C 1.707031 -16.628906 1.4375 -17.800781 1.4375 -19.0625 C 1.4375 -20.3125 1.703125 -21.4375 2.234375 -22.4375 C 2.773438 -23.445312 3.679688 -24.25 4.953125 -24.84375 C 6.234375 -25.4375 7.984375 -25.734375 10.203125 -25.734375 C 11.046875 -25.734375 11.945312 -25.691406 12.90625 -25.609375 C 13.863281 -25.535156 14.75 -25.441406 15.5625 -25.328125 C 16.382812 -25.210938 17.015625 -25.097656 17.453125 -24.984375 C 17.585938 -24.960938 17.707031 -24.898438 17.8125 -24.796875 C 17.914062 -24.691406 17.96875 -24.546875 17.96875 -24.359375 L 17.96875 -20.90625 C 17.96875 -20.75 17.925781 -20.613281 17.84375 -20.5 C 17.757812 -20.382812 17.609375 -20.328125 17.390625 -20.328125 C 17.390625 -20.328125 17.378906 -20.328125 17.359375 -20.328125 C 17.347656 -20.328125 17.332031 -20.328125 17.3125 -20.328125 C 17.082031 -20.347656 16.679688 -20.375 16.109375 -20.40625 C 15.546875 -20.445312 14.910156 -20.488281 14.203125 -20.53125 C 13.492188 -20.570312 12.773438 -20.609375 12.046875 -20.640625 C 11.316406 -20.679688 10.65625 -20.703125 10.0625 -20.703125 C 9.082031 -20.703125 8.390625 -20.550781 7.984375 -20.25 C 7.585938 -19.957031 7.390625 -19.503906 7.390625 -18.890625 C 7.390625 -18.410156 7.539062 -18.015625 7.84375 -17.703125 C 8.15625 -17.398438 8.769531 -17 9.6875 -16.5 L 14.0625 -14.125 C 15.84375 -13.164062 17.054688 -12.113281 17.703125 -10.96875 C 18.359375 -9.832031 18.6875 -8.570312 18.6875 -7.1875 Z M 18.6875 -7.1875 "/></g></g></g><g fill="#1b2479" fill-opacity="1"><g transform="translate(253.55405, 189.912274)"><g><path d="M 22.546875 -0.6875 C 22.546875 -0.5 22.476562 -0.335938 22.34375 -0.203125 C 22.207031 -0.0664062 22.046875 0 21.859375 0 L 17.390625 0 C 17.203125 0 17.039062 -0.0664062 16.90625 -0.203125 C 16.769531 -0.335938 16.703125 -0.5 16.703125 -0.6875 L 16.703125 -10.578125 L 8.25 -10.578125 L 8.25 -0.6875 C 8.25 -0.5 8.179688 -0.335938 8.046875 -0.203125 C 7.910156 -0.0664062 7.75 0 7.5625 0 L 3.078125 0 C 2.898438 0 2.738281 -0.0664062 2.59375 -0.203125 C 2.457031 -0.335938 2.390625 -0.5 2.390625 -0.6875 L 2.390625 -24.78125 C 2.390625 -24.957031 2.457031 -25.109375 2.59375 -25.234375 C 2.738281 -25.359375 2.898438 -25.421875 3.078125 -25.421875 L 7.5625 -25.421875 C 7.75 -25.421875 7.910156 -25.359375 8.046875 -25.234375 C 8.179688 -25.109375 8.25 -24.957031 8.25 -24.78125 L 8.25 -15.671875 L 16.703125 -15.671875 L 16.703125 -24.78125 C 16.703125 -24.957031 16.769531 -25.109375 16.90625 -25.234375 C 17.039062 -25.359375 17.203125 -25.421875 17.390625 -25.421875 L 21.859375 -25.421875 C 22.046875 -25.421875 22.207031 -25.359375 22.34375 -25.234375 C 22.476562 -25.109375 22.546875 -24.957031 22.546875 -24.78125 Z M 22.546875 -0.6875 "/></g></g></g><g fill="#1b2479" fill-opacity="1"><g transform="translate(278.497215, 189.912274)"><g><path d="M 8.25 -0.6875 C 8.25 -0.5 8.1875 -0.335938 8.0625 -0.203125 C 7.9375 -0.0664062 7.78125 0 7.59375 0 L 3.015625 0 C 2.828125 0 2.675781 -0.0664062 2.5625 -0.203125 C 2.445312 -0.335938 2.390625 -0.5 2.390625 -0.6875 L 2.390625 -24.78125 C 2.390625 -25.207031 2.597656 -25.421875 3.015625 -25.421875 L 7.59375 -25.421875 C 8.03125 -25.421875 8.25 -25.207031 8.25 -24.78125 Z M 8.25 -0.6875 "/></g></g></g><g fill="#1b2479" fill-opacity="1"><g transform="translate(289.138265, 189.912274)"><g><path d="M 22.171875 -0.6875 C 22.171875 -0.5 22.109375 -0.335938 21.984375 -0.203125 C 21.859375 -0.0664062 21.707031 0 21.53125 0 L 16.9375 0 C 16.757812 0 16.613281 -0.0664062 16.5 -0.203125 C 16.382812 -0.335938 16.328125 -0.5 16.328125 -0.6875 L 16.328125 -15.953125 C 16.328125 -17.222656 16.179688 -18.203125 15.890625 -18.890625 C 15.609375 -19.578125 15.164062 -20.050781 14.5625 -20.3125 C 13.957031 -20.570312 13.1875 -20.703125 12.25 -20.703125 C 11.539062 -20.703125 10.828125 -20.679688 10.109375 -20.640625 C 9.390625 -20.609375 8.769531 -20.5625 8.25 -20.5 L 8.25 -0.6875 C 8.25 -0.5 8.1875 -0.335938 8.0625 -0.203125 C 7.9375 -0.0664062 7.78125 0 7.59375 0 L 3.046875 0 C 2.859375 0 2.703125 -0.0664062 2.578125 -0.203125 C 2.453125 -0.335938 2.390625 -0.5 2.390625 -0.6875 L 2.390625 -23.03125 C 2.390625 -23.800781 2.515625 -24.320312 2.765625 -24.59375 C 3.015625 -24.875 3.472656 -25.0625 4.140625 -25.15625 C 4.753906 -25.238281 5.535156 -25.328125 6.484375 -25.421875 C 7.429688 -25.515625 8.378906 -25.585938 9.328125 -25.640625 C 10.273438 -25.703125 11.03125 -25.734375 11.59375 -25.734375 C 13.257812 -25.734375 14.742188 -25.585938 16.046875 -25.296875 C 17.347656 -25.015625 18.453125 -24.519531 19.359375 -23.8125 C 20.273438 -23.101562 20.972656 -22.109375 21.453125 -20.828125 C 21.929688 -19.554688 22.171875 -17.929688 22.171875 -15.953125 Z M 22.171875 -0.6875 "/></g></g></g><g fill="#1b2479" fill-opacity="1"><g transform="translate(313.705051, 189.912274)"><g><path d="M 19.84375 -20.8125 C 19.84375 -20.625 19.796875 -20.5 19.703125 -20.4375 C 19.617188 -20.382812 19.492188 -20.359375 19.328125 -20.359375 C 19.304688 -20.359375 19.289062 -20.359375 19.28125 -20.359375 C 19.269531 -20.359375 19.253906 -20.359375 19.234375 -20.359375 C 18.410156 -20.398438 17.378906 -20.457031 16.140625 -20.53125 C 14.910156 -20.601562 13.566406 -20.640625 12.109375 -20.640625 C 11.203125 -20.640625 10.410156 -20.46875 9.734375 -20.125 C 9.054688 -19.78125 8.535156 -19.1875 8.171875 -18.34375 C 7.804688 -17.5 7.625 -16.320312 7.625 -14.8125 L 7.625 -10.546875 C 7.625 -8.960938 7.828125 -7.75 8.234375 -6.90625 C 8.648438 -6.0625 9.15625 -5.484375 9.75 -5.171875 C 10.34375 -4.867188 10.914062 -4.71875 11.46875 -4.71875 C 12.394531 -4.71875 13.269531 -4.753906 14.09375 -4.828125 L 14.09375 -12.6875 C 14.09375 -12.875 14.15625 -13.035156 14.28125 -13.171875 C 14.40625 -13.304688 14.5625 -13.375 14.75 -13.375 L 19.125 -13.375 C 19.3125 -13.375 19.472656 -13.304688 19.609375 -13.171875 C 19.742188 -13.035156 19.8125 -12.875 19.8125 -12.6875 L 19.8125 -1.203125 C 19.8125 -0.765625 19.582031 -0.5 19.125 -0.40625 C 18.21875 -0.226562 17.140625 -0.0664062 15.890625 0.078125 C 14.648438 0.234375 13.175781 0.3125 11.46875 0.3125 C 10.476562 0.3125 9.425781 0.144531 8.3125 -0.1875 C 7.195312 -0.519531 6.132812 -1.082031 5.125 -1.875 C 4.125 -2.675781 3.304688 -3.785156 2.671875 -5.203125 C 2.035156 -6.617188 1.71875 -8.410156 1.71875 -10.578125 L 1.71875 -14.8125 C 1.71875 -17.007812 2.019531 -18.8125 2.625 -20.21875 C 3.226562 -21.632812 4.035156 -22.738281 5.046875 -23.53125 C 6.054688 -24.332031 7.175781 -24.898438 8.40625 -25.234375 C 9.644531 -25.566406 10.878906 -25.734375 12.109375 -25.734375 C 13.828125 -25.734375 15.289062 -25.632812 16.5 -25.4375 C 17.707031 -25.25 18.628906 -25.085938 19.265625 -24.953125 C 19.648438 -24.878906 19.84375 -24.707031 19.84375 -24.4375 Z M 19.84375 -20.8125 "/></g></g></g><g fill="#000000" fill-opacity="1"><g transform="translate(137.009961, 210.557653)"><g><path d="M 6.625 -9.375 L 8.59375 -9.375 L 8.59375 -3.171875 C 8.59375 -2.460938 8.425781 -1.863281 8.09375 -1.375 C 7.757812 -0.882812 7.300781 -0.507812 6.71875 -0.25 C 6.132812 0 5.460938 0.125 4.703125 0.125 C 3.941406 0.125 3.269531 0 2.6875 -0.25 C 2.101562 -0.507812 1.644531 -0.882812 1.3125 -1.375 C 0.976562 -1.863281 0.8125 -2.460938 0.8125 -3.171875 L 0.8125 -9.375 L 2.796875 -9.375 L 2.796875 -3.25 C 2.796875 -2.75 2.972656 -2.351562 3.328125 -2.0625 C 3.691406 -1.78125 4.148438 -1.640625 4.703125 -1.640625 C 5.253906 -1.640625 5.710938 -1.78125 6.078125 -2.0625 C 6.441406 -2.351562 6.625 -2.75 6.625 -3.25 Z M 6.625 -9.375 "/></g></g></g><g fill="#000000" fill-opacity="1"><g transform="translate(150.273536, 210.557653)"><g><path d="M 0.8125 0 L 0.8125 -9.375 L 4.515625 -9.375 C 5.222656 -9.375 5.828125 -9.238281 6.328125 -8.96875 C 6.828125 -8.695312 7.207031 -8.320312 7.46875 -7.84375 C 7.738281 -7.363281 7.875 -6.816406 7.875 -6.203125 C 7.875 -5.578125 7.738281 -5.023438 7.46875 -4.546875 C 7.195312 -4.078125 6.804688 -3.707031 6.296875 -3.4375 C 5.796875 -3.175781 5.1875 -3.046875 4.46875 -3.046875 L 2.796875 -3.046875 L 2.796875 0 Z M 2.796875 -4.625 L 4.140625 -4.625 C 4.710938 -4.625 5.132812 -4.769531 5.40625 -5.0625 C 5.6875 -5.351562 5.828125 -5.734375 5.828125 -6.203125 C 5.828125 -6.671875 5.6875 -7.046875 5.40625 -7.328125 C 5.132812 -7.609375 4.710938 -7.75 4.140625 -7.75 L 2.796875 -7.75 Z M 2.796875 -4.625 "/></g></g></g><g fill="#000000" fill-opacity="1"><g transform="translate(162.484894, 210.557653)"><g><path d="M 0.8125 0 L 0.8125 -9.375 L 2.796875 -9.375 L 2.796875 -1.640625 L 6.8125 -1.640625 L 6.8125 0 Z M 0.8125 0 "/></g></g></g><g fill="#000000" fill-opacity="1"><g transform="translate(173.662334, 210.557653)"><g><path d="M 9.4375 -4.6875 C 9.4375 -3.664062 9.238281 -2.796875 8.84375 -2.078125 C 8.457031 -1.359375 7.929688 -0.8125 7.265625 -0.4375 C 6.609375 -0.0625 5.867188 0.125 5.046875 0.125 C 4.210938 0.125 3.460938 -0.0625 2.796875 -0.4375 C 2.128906 -0.8125 1.601562 -1.359375 1.21875 -2.078125 C 0.84375 -2.796875 0.65625 -3.664062 0.65625 -4.6875 C 0.65625 -5.707031 0.84375 -6.578125 1.21875 -7.296875 C 1.601562 -8.015625 2.128906 -8.5625 2.796875 -8.9375 C 3.460938 -9.3125 4.210938 -9.5 5.046875 -9.5 C 5.867188 -9.5 6.609375 -9.3125 7.265625 -8.9375 C 7.929688 -8.5625 8.457031 -8.015625 8.84375 -7.296875 C 9.238281 -6.578125 9.4375 -5.707031 9.4375 -4.6875 Z M 7.421875 -4.6875 C 7.421875 -5.6875 7.203125 -6.445312 6.765625 -6.96875 C 6.335938 -7.488281 5.765625 -7.75 5.046875 -7.75 C 4.316406 -7.75 3.734375 -7.488281 3.296875 -6.96875 C 2.867188 -6.445312 2.65625 -5.6875 2.65625 -4.6875 C 2.65625 -3.695312 2.867188 -2.9375 3.296875 -2.40625 C 3.734375 -1.882812 4.316406 -1.625 5.046875 -1.625 C 5.765625 -1.625 6.335938 -1.882812 6.765625 -2.40625 C 7.203125 -2.9375 7.421875 -3.695312 7.421875 -4.6875 Z M 7.421875 -4.6875 "/></g></g></g><g fill="#000000" fill-opacity="1"><g transform="translate(187.602989, 210.557653)"><g><path d="M 2.4375 0 L 0.3125 0 L 3.546875 -9.375 L 6.09375 -9.375 L 9.328125 0 L 7.203125 0 L 6.515625 -2.140625 L 3.125 -2.140625 Z M 3.625 -3.6875 L 6.015625 -3.6875 L 4.859375 -7.234375 L 4.78125 -7.234375 Z M 3.625 -3.6875 "/></g></g></g><g fill="#000000" fill-opacity="1"><g transform="translate(201.10446, 210.557653)"><g><path d="M 4.140625 0 L 0.8125 0 L 0.8125 -9.375 L 4.171875 -9.375 C 5.109375 -9.375 5.914062 -9.1875 6.59375 -8.8125 C 7.28125 -8.4375 7.804688 -7.898438 8.171875 -7.203125 C 8.535156 -6.503906 8.71875 -5.671875 8.71875 -4.703125 C 8.71875 -3.722656 8.535156 -2.878906 8.171875 -2.171875 C 7.804688 -1.472656 7.28125 -0.9375 6.59375 -0.5625 C 5.90625 -0.1875 5.085938 0 4.140625 0 Z M 2.796875 -1.703125 L 4.0625 -1.703125 C 4.9375 -1.703125 5.601562 -1.9375 6.0625 -2.40625 C 6.519531 -2.882812 6.75 -3.648438 6.75 -4.703125 C 6.75 -5.734375 6.519531 -6.484375 6.0625 -6.953125 C 5.601562 -7.429688 4.9375 -7.671875 4.0625 -7.671875 L 2.796875 -7.671875 Z M 2.796875 -1.703125 "/></g></g></g><g fill="#000000" fill-opacity="1"><g transform="translate(214.340589, 210.557653)"><g/></g></g><g fill="#000000" fill-opacity="1"><g transform="translate(221.194788, 210.557653)"><g><path d="M 0.8125 0 L 0.8125 -9.375 L 7.015625 -9.375 L 7.015625 -7.734375 L 2.796875 -7.734375 L 2.796875 -5.5 L 6.609375 -5.5 L 6.609375 -3.875 L 2.796875 -3.875 L 2.796875 0 Z M 0.8125 0 "/></g></g></g><g fill="#000000" fill-opacity="1"><g transform="translate(232.596398, 210.557653)"><g><path d="M 2.796875 -9.375 L 2.796875 0 L 0.8125 0 L 0.8125 -9.375 Z M 2.796875 -9.375 "/></g></g></g><g fill="#000000" fill-opacity="1"><g transform="translate(240.077353, 210.557653)"><g><path d="M 0.8125 0 L 0.8125 -9.375 L 2.796875 -9.375 L 2.796875 -1.640625 L 6.8125 -1.640625 L 6.8125 0 Z M 0.8125 0 "/></g></g></g><g fill="#000000" fill-opacity="1"><g transform="translate(251.254795, 210.557653)"><g><path d="M 0.8125 0 L 0.8125 -9.375 L 7.125 -9.375 L 7.125 -7.734375 L 2.796875 -7.734375 L 2.796875 -5.5 L 6.8125 -5.5 L 6.8125 -3.875 L 2.796875 -3.875 L 2.796875 -1.640625 L 7.15625 -1.640625 L 7.15625 0 Z M 0.8125 0 "/></g></g></g><g fill="#000000" fill-opacity="1"><g transform="translate(263.013244, 210.557653)"><g/></g></g><g fill="#000000" fill-opacity="1"><g transform="translate(269.867443, 210.557653)"><g><path d="M 3.65625 0.140625 C 3 0.140625 2.4375 0.0234375 1.96875 -0.203125 C 1.5 -0.441406 1.140625 -0.757812 0.890625 -1.15625 C 0.640625 -1.550781 0.515625 -1.992188 0.515625 -2.484375 C 0.515625 -3.035156 0.671875 -3.492188 0.984375 -3.859375 C 1.296875 -4.222656 1.707031 -4.582031 2.21875 -4.9375 C 1.976562 -5.25 1.769531 -5.582031 1.59375 -5.9375 C 1.414062 -6.289062 1.328125 -6.675781 1.328125 -7.09375 C 1.328125 -7.539062 1.429688 -7.945312 1.640625 -8.3125 C 1.859375 -8.675781 2.160156 -8.960938 2.546875 -9.171875 C 2.929688 -9.390625 3.378906 -9.5 3.890625 -9.5 C 4.390625 -9.5 4.820312 -9.394531 5.1875 -9.1875 C 5.550781 -8.988281 5.832031 -8.722656 6.03125 -8.390625 C 6.226562 -8.054688 6.328125 -7.6875 6.328125 -7.28125 C 6.328125 -6.84375 6.21875 -6.441406 6 -6.078125 C 5.78125 -5.722656 5.472656 -5.40625 5.078125 -5.125 L 4.53125 -4.734375 L 6.078125 -2.953125 C 6.203125 -3.179688 6.300781 -3.429688 6.375 -3.703125 C 6.445312 -3.972656 6.484375 -4.265625 6.484375 -4.578125 L 8.09375 -4.578125 C 8.09375 -3.941406 8.015625 -3.375 7.859375 -2.875 C 7.703125 -2.382812 7.492188 -1.960938 7.234375 -1.609375 L 8.65625 0 L 6.625 0 L 6.046875 -0.625 C 5.703125 -0.363281 5.316406 -0.171875 4.890625 -0.046875 C 4.472656 0.078125 4.0625 0.140625 3.65625 0.140625 Z M 5 -1.796875 L 3.21875 -3.78125 L 3.171875 -3.75 C 2.910156 -3.5625 2.71875 -3.367188 2.59375 -3.171875 C 2.46875 -2.972656 2.40625 -2.78125 2.40625 -2.59375 C 2.40625 -2.257812 2.523438 -1.976562 2.765625 -1.75 C 3.015625 -1.53125 3.34375 -1.421875 3.75 -1.421875 C 4.175781 -1.421875 4.59375 -1.546875 5 -1.796875 Z M 3.59375 -5.84375 L 4.078125 -6.15625 C 4.535156 -6.445312 4.765625 -6.785156 4.765625 -7.171875 C 4.765625 -7.359375 4.6875 -7.53125 4.53125 -7.6875 C 4.382812 -7.851562 4.175781 -7.929688 3.90625 -7.921875 C 3.632812 -7.921875 3.414062 -7.832031 3.25 -7.65625 C 3.082031 -7.488281 3 -7.289062 3 -7.0625 C 3 -6.863281 3.050781 -6.664062 3.15625 -6.46875 C 3.269531 -6.269531 3.414062 -6.0625 3.59375 -5.84375 Z M 3.59375 -5.84375 "/></g></g></g><g fill="#000000" fill-opacity="1"><g transform="translate(282.417343, 210.557653)"><g/></g></g><g fill="#000000" fill-opacity="1"><g transform="translate(289.271542, 210.557653)"><g><path d="M 5.90625 -6.671875 C 5.863281 -7.046875 5.703125 -7.332031 5.421875 -7.53125 C 5.148438 -7.738281 4.773438 -7.84375 4.296875 -7.84375 C 3.816406 -7.84375 3.445312 -7.742188 3.1875 -7.546875 C 2.925781 -7.347656 2.796875 -7.097656 2.796875 -6.796875 C 2.785156 -6.460938 2.925781 -6.207031 3.21875 -6.03125 C 3.519531 -5.863281 3.875 -5.734375 4.28125 -5.640625 L 5.125 -5.4375 C 5.664062 -5.3125 6.144531 -5.132812 6.5625 -4.90625 C 6.988281 -4.675781 7.320312 -4.375 7.5625 -4 C 7.800781 -3.632812 7.921875 -3.191406 7.921875 -2.671875 C 7.921875 -1.816406 7.597656 -1.132812 6.953125 -0.625 C 6.316406 -0.125 5.429688 0.125 4.296875 0.125 C 3.148438 0.125 2.238281 -0.128906 1.5625 -0.640625 C 0.882812 -1.160156 0.535156 -1.925781 0.515625 -2.9375 L 2.4375 -2.9375 C 2.46875 -2.46875 2.648438 -2.113281 2.984375 -1.875 C 3.328125 -1.644531 3.753906 -1.53125 4.265625 -1.53125 C 4.765625 -1.53125 5.164062 -1.632812 5.46875 -1.84375 C 5.769531 -2.0625 5.921875 -2.34375 5.921875 -2.6875 C 5.921875 -3 5.78125 -3.238281 5.5 -3.40625 C 5.226562 -3.582031 4.835938 -3.734375 4.328125 -3.859375 L 3.3125 -4.109375 C 2.519531 -4.296875 1.894531 -4.59375 1.4375 -5 C 0.976562 -5.414062 0.753906 -5.972656 0.765625 -6.671875 C 0.753906 -7.234375 0.898438 -7.726562 1.203125 -8.15625 C 1.515625 -8.582031 1.9375 -8.910156 2.46875 -9.140625 C 3.007812 -9.378906 3.625 -9.5 4.3125 -9.5 C 5.007812 -9.5 5.617188 -9.378906 6.140625 -9.140625 C 6.660156 -8.910156 7.0625 -8.582031 7.34375 -8.15625 C 7.632812 -7.726562 7.785156 -7.234375 7.796875 -6.671875 Z M 5.90625 -6.671875 "/></g></g></g><g fill="#000000" fill-opacity="1"><g transform="translate(301.5744, 210.557653)"><g><path d="M 2.4375 0 L 0.3125 0 L 3.546875 -9.375 L 6.09375 -9.375 L 9.328125 0 L 7.203125 0 L 6.515625 -2.140625 L 3.125 -2.140625 Z M 3.625 -3.6875 L 6.015625 -3.6875 L 4.859375 -7.234375 L 4.78125 -7.234375 Z M 3.625 -3.6875 "/></g></g></g><g fill="#000000" fill-opacity="1"><g transform="translate(315.075871, 210.557653)"><g><path d="M 0.8125 0 L 0.8125 -9.375 L 2.796875 -9.375 L 2.796875 -1.640625 L 6.8125 -1.640625 L 6.8125 0 Z M 0.8125 0 "/></g></g></g><g fill="#000000" fill-opacity="1"><g transform="translate(326.253313, 210.557653)"><g><path d="M 0.8125 0 L 0.8125 -9.375 L 7.125 -9.375 L 7.125 -7.734375 L 2.796875 -7.734375 L 2.796875 -5.5 L 6.8125 -5.5 L 6.8125 -3.875 L 2.796875 -3.875 L 2.796875 -1.640625 L 7.15625 -1.640625 L 7.15625 0 Z M 0.8125 0 "/></g></g></g><g clip-path="url(#b30692ac6b)"><path fill="#1b2479" d="M 90.601562 213.269531 L 44.679688 213.269531 L 49.28125 199.285156 L 92.199219 199.285156 L 100.816406 172.640625 L 57.902344 172.640625 L 62.503906 158.652344 L 108.425781 158.652344 C 115.554688 158.652344 119.433594 164.433594 117.085938 171.566406 L 107.761719 200.355469 C 105.414062 207.488281 97.730469 213.269531 90.601562 213.269531 Z M 76.226562 178.96875 L 42.105469 178.96875 L 37.5 192.953125 L 71.625 192.953125 Z M 76.226562 178.96875 " fill-opacity="1" fill-rule="nonzero"/></g><path stroke-linecap="butt" transform="matrix(0.294932, -0.88664, 0.88664, 0.294932, 65.368769, 214.31688)" fill="none" stroke-linejoin="miter" d="M 0.00172638 3.500154 L 20.352253 3.502286 " stroke="#ffffff" stroke-width="7" stroke-opacity="1" stroke-miterlimit="4"/></svg>