<svg xmlns="http://www.w3.org/2000/svg" xmlns:xlink="http://www.w3.org/1999/xlink" width="500" zoomAndPan="magnify" viewBox="0 0 375 374.999991" height="500" preserveAspectRatio="xMidYMid meet" version="1.0"><defs><g/><clipPath id="607d123da4"><path d="M 154.617188 121.886719 L 220 121.886719 L 220 166 L 154.617188 166 Z M 154.617188 121.886719 " clip-rule="nonzero"/></clipPath></defs><rect x="-37.5" width="450" fill="#ffffff" y="-37.499999" height="449.999989" fill-opacity="1"/><rect x="-37.5" width="450" fill="#1b2479" y="-37.499999" height="449.999989" fill-opacity="1"/><g clip-path="url(#607d123da4)"><path fill="#ffffff" d="M 197.238281 165.753906 L 160.378906 165.753906 L 164.074219 154.53125 L 198.519531 154.53125 L 205.4375 133.144531 L 170.992188 133.144531 L 174.6875 121.917969 L 211.546875 121.917969 C 217.269531 121.917969 220.382812 126.558594 218.496094 132.28125 L 211.011719 155.390625 C 209.128906 161.117188 202.960938 165.753906 197.238281 165.753906 Z M 185.703125 138.226562 L 158.3125 138.226562 L 154.617188 149.449219 L 182.007812 149.449219 Z M 185.703125 138.226562 " fill-opacity="1" fill-rule="nonzero"/></g><g fill="#ffffff" fill-opacity="1"><g transform="translate(71.425781, 214.4486)"><g><path d="M 24.5 -19.90625 C 24.5 -18.050781 24.164062 -16.503906 23.5 -15.265625 C 22.84375 -14.023438 21.945312 -13.039062 20.8125 -12.3125 C 19.675781 -11.582031 18.40625 -11.066406 17 -10.765625 C 15.601562 -10.460938 14.164062 -10.3125 12.6875 -10.3125 C 12.207031 -10.3125 11.675781 -10.320312 11.09375 -10.34375 C 10.519531 -10.375 9.976562 -10.398438 9.46875 -10.421875 L 9.46875 -0.796875 C 9.46875 -0.578125 9.390625 -0.390625 9.234375 -0.234375 C 9.078125 -0.078125 8.894531 0 8.6875 0 L 3.5625 0 C 3.351562 0 3.171875 -0.0703125 3.015625 -0.21875 C 2.859375 -0.363281 2.78125 -0.539062 2.78125 -0.75 L 2.78125 -27.390625 C 2.78125 -28.078125 2.921875 -28.539062 3.203125 -28.78125 C 3.492188 -29.019531 3.945312 -29.191406 4.5625 -29.296875 C 5.5625 -29.453125 6.796875 -29.578125 8.265625 -29.671875 C 9.734375 -29.765625 11.179688 -29.8125 12.609375 -29.8125 C 14.109375 -29.8125 15.566406 -29.65625 16.984375 -29.34375 C 18.398438 -29.039062 19.664062 -28.53125 20.78125 -27.8125 C 21.90625 -27.101562 22.804688 -26.132812 23.484375 -24.90625 C 24.160156 -23.6875 24.5 -22.132812 24.5 -20.25 Z M 17.765625 -19.90625 L 17.765625 -20.25 C 17.765625 -21.65625 17.332031 -22.660156 16.46875 -23.265625 C 15.613281 -23.878906 14.351562 -24.1875 12.6875 -24.1875 C 12.5 -24.1875 12.179688 -24.175781 11.734375 -24.15625 C 11.285156 -24.144531 10.835938 -24.128906 10.390625 -24.109375 C 9.941406 -24.097656 9.632812 -24.082031 9.46875 -24.0625 L 9.46875 -15.96875 C 9.632812 -15.96875 9.945312 -15.960938 10.40625 -15.953125 C 10.863281 -15.941406 11.320312 -15.925781 11.78125 -15.90625 C 12.25 -15.894531 12.550781 -15.890625 12.6875 -15.890625 C 14.457031 -15.890625 15.742188 -16.21875 16.546875 -16.875 C 17.359375 -17.539062 17.765625 -18.550781 17.765625 -19.90625 Z M 17.765625 -19.90625 "/></g></g></g><g fill="#ffffff" fill-opacity="1"><g transform="translate(97.22677, 214.4486)"><g><path d="M 25.609375 -3.046875 C 25.609375 -2.066406 25.421875 -1.398438 25.046875 -1.046875 C 24.679688 -0.691406 24.078125 -0.445312 23.234375 -0.3125 C 22.835938 -0.257812 22.269531 -0.191406 21.53125 -0.109375 C 20.789062 -0.0351562 19.984375 0.03125 19.109375 0.09375 C 18.234375 0.164062 17.390625 0.226562 16.578125 0.28125 C 15.773438 0.332031 15.113281 0.359375 14.59375 0.359375 C 12.84375 0.359375 11.238281 0.1875 9.78125 -0.15625 C 8.332031 -0.5 7.085938 -1.085938 6.046875 -1.921875 C 5.003906 -2.753906 4.195312 -3.910156 3.625 -5.390625 C 3.0625 -6.867188 2.78125 -8.734375 2.78125 -10.984375 L 2.78125 -28.703125 C 2.78125 -28.910156 2.859375 -29.085938 3.015625 -29.234375 C 3.171875 -29.378906 3.351562 -29.453125 3.5625 -29.453125 L 8.765625 -29.453125 C 8.972656 -29.453125 9.15625 -29.378906 9.3125 -29.234375 C 9.46875 -29.085938 9.546875 -28.910156 9.546875 -28.703125 L 9.546875 -10.984375 C 9.546875 -8.972656 9.875 -7.523438 10.53125 -6.640625 C 11.195312 -5.753906 12.414062 -5.3125 14.1875 -5.3125 C 14.875 -5.3125 15.65625 -5.335938 16.53125 -5.390625 C 17.40625 -5.441406 18.171875 -5.507812 18.828125 -5.59375 L 18.828125 -28.703125 C 18.828125 -28.910156 18.90625 -29.085938 19.0625 -29.234375 C 19.226562 -29.378906 19.414062 -29.453125 19.625 -29.453125 L 24.78125 -29.453125 C 24.988281 -29.453125 25.175781 -29.378906 25.34375 -29.234375 C 25.519531 -29.085938 25.609375 -28.910156 25.609375 -28.703125 Z M 25.609375 -3.046875 "/></g></g></g><g fill="#ffffff" fill-opacity="1"><g transform="translate(125.603893, 214.4486)"><g><path d="M 24.703125 -8.515625 C 24.703125 -6.773438 24.375 -5.328125 23.71875 -4.171875 C 23.070312 -3.023438 22.175781 -2.117188 21.03125 -1.453125 C 19.882812 -0.796875 18.554688 -0.328125 17.046875 -0.046875 C 15.535156 0.222656 13.921875 0.359375 12.203125 0.359375 C 10.910156 0.359375 9.570312 0.3125 8.1875 0.21875 C 6.800781 0.125 5.722656 0.0078125 4.953125 -0.125 C 4.160156 -0.25 3.597656 -0.484375 3.265625 -0.828125 C 2.941406 -1.171875 2.78125 -1.796875 2.78125 -2.703125 L 2.78125 -26.796875 C 2.78125 -27.691406 2.9375 -28.316406 3.25 -28.671875 C 3.5625 -29.035156 4.101562 -29.269531 4.875 -29.375 C 5.320312 -29.457031 5.941406 -29.53125 6.734375 -29.59375 C 7.523438 -29.65625 8.382812 -29.707031 9.3125 -29.75 C 10.238281 -29.789062 11.125 -29.8125 11.96875 -29.8125 C 14.476562 -29.8125 16.671875 -29.554688 18.546875 -29.046875 C 20.421875 -28.546875 21.878906 -27.695312 22.921875 -26.5 C 23.972656 -25.300781 24.5 -23.644531 24.5 -21.53125 L 24.5 -20.8125 C 24.5 -19.519531 24.207031 -18.359375 23.625 -17.328125 C 23.039062 -16.296875 22.222656 -15.515625 21.171875 -14.984375 C 22.222656 -14.484375 23.070312 -13.722656 23.71875 -12.703125 C 24.375 -11.679688 24.703125 -10.488281 24.703125 -9.125 Z M 17.953125 -20.5 L 17.953125 -21.09375 C 17.953125 -22.175781 17.550781 -22.972656 16.75 -23.484375 C 15.945312 -24.003906 14.523438 -24.265625 12.484375 -24.265625 C 12.273438 -24.265625 11.960938 -24.265625 11.546875 -24.265625 C 11.140625 -24.265625 10.738281 -24.265625 10.34375 -24.265625 C 9.945312 -24.265625 9.65625 -24.25 9.46875 -24.21875 L 9.46875 -17.359375 L 13.90625 -17.359375 C 15.46875 -17.359375 16.53125 -17.664062 17.09375 -18.28125 C 17.664062 -18.90625 17.953125 -19.644531 17.953125 -20.5 Z M 18.109375 -8.6875 L 18.109375 -9.125 C 18.109375 -10.070312 17.804688 -10.894531 17.203125 -11.59375 C 16.597656 -12.289062 15.5 -12.640625 13.90625 -12.640625 L 9.46875 -12.640625 L 9.46875 -5.234375 C 9.6875 -5.234375 10.019531 -5.234375 10.46875 -5.234375 C 10.914062 -5.234375 11.359375 -5.222656 11.796875 -5.203125 C 12.234375 -5.191406 12.539062 -5.1875 12.71875 -5.1875 C 14.757812 -5.1875 16.164062 -5.488281 16.9375 -6.09375 C 17.71875 -6.707031 18.109375 -7.570312 18.109375 -8.6875 Z M 18.109375 -8.6875 "/></g></g></g><g fill="#ffffff" fill-opacity="1"><g transform="translate(152.118273, 214.4486)"><g><path d="M 19.703125 -0.984375 C 19.703125 -0.535156 19.4375 -0.257812 18.90625 -0.15625 C 18.488281 -0.0820312 17.898438 -0.00390625 17.140625 0.078125 C 16.390625 0.160156 15.597656 0.226562 14.765625 0.28125 C 13.929688 0.332031 13.160156 0.359375 12.453125 0.359375 C 11.179688 0.359375 9.960938 0.242188 8.796875 0.015625 C 7.640625 -0.203125 6.601562 -0.609375 5.6875 -1.203125 C 4.78125 -1.796875 4.066406 -2.65625 3.546875 -3.78125 C 3.035156 -4.90625 2.78125 -6.367188 2.78125 -8.171875 L 2.78125 -28.65625 C 2.78125 -28.875 2.859375 -29.0625 3.015625 -29.21875 C 3.171875 -29.375 3.351562 -29.453125 3.5625 -29.453125 L 8.765625 -29.453125 C 8.972656 -29.453125 9.15625 -29.375 9.3125 -29.21875 C 9.46875 -29.0625 9.546875 -28.875 9.546875 -28.65625 L 9.546875 -8.171875 C 9.546875 -7.140625 9.738281 -6.429688 10.125 -6.046875 C 10.507812 -5.660156 11.164062 -5.46875 12.09375 -5.46875 L 18.90625 -5.46875 C 19.113281 -5.46875 19.296875 -5.390625 19.453125 -5.234375 C 19.617188 -5.078125 19.703125 -4.890625 19.703125 -4.671875 Z M 19.703125 -0.984375 "/></g></g></g><g fill="#ffffff" fill-opacity="1"><g transform="translate(172.687722, 214.4486)"><g><path d="M 9.546875 -0.796875 C 9.546875 -0.578125 9.472656 -0.390625 9.328125 -0.234375 C 9.191406 -0.078125 9.015625 0 8.796875 0 L 3.484375 0 C 3.273438 0 3.101562 -0.078125 2.96875 -0.234375 C 2.84375 -0.390625 2.78125 -0.578125 2.78125 -0.796875 L 2.78125 -28.703125 C 2.78125 -29.203125 3.015625 -29.453125 3.484375 -29.453125 L 8.796875 -29.453125 C 9.296875 -29.453125 9.546875 -29.203125 9.546875 -28.703125 Z M 9.546875 -0.796875 "/></g></g></g><g fill="#ffffff" fill-opacity="1"><g transform="translate(185.013534, 214.4486)"><g><path d="M 21.640625 -8.328125 C 21.640625 -7.265625 21.445312 -6.222656 21.0625 -5.203125 C 20.6875 -4.191406 20.082031 -3.265625 19.25 -2.421875 C 18.414062 -1.578125 17.300781 -0.898438 15.90625 -0.390625 C 14.519531 0.109375 12.828125 0.359375 10.828125 0.359375 C 9.265625 0.359375 7.875 0.273438 6.65625 0.109375 C 5.445312 -0.046875 4.335938 -0.253906 3.328125 -0.515625 C 3.140625 -0.566406 2.957031 -0.65625 2.78125 -0.78125 C 2.613281 -0.914062 2.53125 -1.09375 2.53125 -1.3125 L 2.53125 -5.1875 C 2.53125 -5.695312 2.769531 -5.953125 3.25 -5.953125 C 3.28125 -5.953125 3.300781 -5.953125 3.3125 -5.953125 C 3.320312 -5.953125 3.34375 -5.953125 3.375 -5.953125 C 3.769531 -5.921875 4.3125 -5.867188 5 -5.796875 C 5.6875 -5.734375 6.410156 -5.679688 7.171875 -5.640625 C 7.941406 -5.609375 8.65625 -5.570312 9.3125 -5.53125 C 9.976562 -5.488281 10.507812 -5.46875 10.90625 -5.46875 C 12.28125 -5.46875 13.207031 -5.691406 13.6875 -6.140625 C 14.175781 -6.585938 14.421875 -7.289062 14.421875 -8.25 C 14.421875 -8.832031 14.242188 -9.328125 13.890625 -9.734375 C 13.535156 -10.140625 12.84375 -10.648438 11.8125 -11.265625 L 6.34375 -14.515625 C 4.488281 -15.597656 3.242188 -16.765625 2.609375 -18.015625 C 1.984375 -19.273438 1.671875 -20.628906 1.671875 -22.078125 C 1.671875 -23.535156 1.976562 -24.84375 2.59375 -26 C 3.21875 -27.164062 4.269531 -28.09375 5.75 -28.78125 C 7.226562 -29.46875 9.25 -29.8125 11.8125 -29.8125 C 12.789062 -29.8125 13.832031 -29.765625 14.9375 -29.671875 C 16.050781 -29.578125 17.082031 -29.460938 18.03125 -29.328125 C 18.988281 -29.203125 19.71875 -29.070312 20.21875 -28.9375 C 20.375 -28.90625 20.507812 -28.832031 20.625 -28.71875 C 20.75 -28.601562 20.8125 -28.4375 20.8125 -28.21875 L 20.8125 -24.21875 C 20.8125 -24.03125 20.765625 -23.867188 20.671875 -23.734375 C 20.578125 -23.609375 20.398438 -23.546875 20.140625 -23.546875 C 20.140625 -23.546875 20.128906 -23.546875 20.109375 -23.546875 C 20.097656 -23.546875 20.082031 -23.546875 20.0625 -23.546875 C 19.789062 -23.578125 19.328125 -23.609375 18.671875 -23.640625 C 18.015625 -23.679688 17.273438 -23.726562 16.453125 -23.78125 C 15.628906 -23.832031 14.796875 -23.878906 13.953125 -23.921875 C 13.109375 -23.960938 12.34375 -23.984375 11.65625 -23.984375 C 10.519531 -23.984375 9.71875 -23.8125 9.25 -23.46875 C 8.789062 -23.125 8.5625 -22.59375 8.5625 -21.875 C 8.5625 -21.320312 8.738281 -20.867188 9.09375 -20.515625 C 9.445312 -20.160156 10.15625 -19.691406 11.21875 -19.109375 L 16.296875 -16.375 C 18.359375 -15.257812 19.765625 -14.039062 20.515625 -12.71875 C 21.265625 -11.40625 21.640625 -9.941406 21.640625 -8.328125 Z M 21.640625 -8.328125 "/></g></g></g><g fill="#ffffff" fill-opacity="1"><g transform="translate(208.317652, 214.4486)"><g><path d="M 26.125 -0.796875 C 26.125 -0.578125 26.039062 -0.390625 25.875 -0.234375 C 25.71875 -0.078125 25.535156 0 25.328125 0 L 20.140625 0 C 19.929688 0 19.742188 -0.078125 19.578125 -0.234375 C 19.421875 -0.390625 19.34375 -0.578125 19.34375 -0.796875 L 19.34375 -12.25 L 9.546875 -12.25 L 9.546875 -0.796875 C 9.546875 -0.578125 9.46875 -0.390625 9.3125 -0.234375 C 9.15625 -0.078125 8.972656 0 8.765625 0 L 3.5625 0 C 3.351562 0 3.171875 -0.078125 3.015625 -0.234375 C 2.859375 -0.390625 2.78125 -0.578125 2.78125 -0.796875 L 2.78125 -28.703125 C 2.78125 -28.910156 2.859375 -29.085938 3.015625 -29.234375 C 3.171875 -29.378906 3.351562 -29.453125 3.5625 -29.453125 L 8.765625 -29.453125 C 8.972656 -29.453125 9.15625 -29.378906 9.3125 -29.234375 C 9.46875 -29.085938 9.546875 -28.910156 9.546875 -28.703125 L 9.546875 -18.15625 L 19.34375 -18.15625 L 19.34375 -28.703125 C 19.34375 -28.910156 19.421875 -29.085938 19.578125 -29.234375 C 19.742188 -29.378906 19.929688 -29.453125 20.140625 -29.453125 L 25.328125 -29.453125 C 25.535156 -29.453125 25.71875 -29.378906 25.875 -29.234375 C 26.039062 -29.085938 26.125 -28.910156 26.125 -28.703125 Z M 26.125 -0.796875 "/></g></g></g><g fill="#ffffff" fill-opacity="1"><g transform="translate(237.209999, 214.4486)"><g><path d="M 9.546875 -0.796875 C 9.546875 -0.578125 9.472656 -0.390625 9.328125 -0.234375 C 9.191406 -0.078125 9.015625 0 8.796875 0 L 3.484375 0 C 3.273438 0 3.101562 -0.078125 2.96875 -0.234375 C 2.84375 -0.390625 2.78125 -0.578125 2.78125 -0.796875 L 2.78125 -28.703125 C 2.78125 -29.203125 3.015625 -29.453125 3.484375 -29.453125 L 8.796875 -29.453125 C 9.296875 -29.453125 9.546875 -29.203125 9.546875 -28.703125 Z M 9.546875 -0.796875 "/></g></g></g><g fill="#ffffff" fill-opacity="1"><g transform="translate(249.535812, 214.4486)"><g><path d="M 25.6875 -0.796875 C 25.6875 -0.578125 25.613281 -0.390625 25.46875 -0.234375 C 25.320312 -0.078125 25.144531 0 24.9375 0 L 19.625 0 C 19.414062 0 19.242188 -0.078125 19.109375 -0.234375 C 18.972656 -0.390625 18.90625 -0.578125 18.90625 -0.796875 L 18.90625 -18.46875 C 18.90625 -19.945312 18.738281 -21.082031 18.40625 -21.875 C 18.082031 -22.675781 17.566406 -23.226562 16.859375 -23.53125 C 16.160156 -23.832031 15.269531 -23.984375 14.1875 -23.984375 C 13.375 -23.984375 12.550781 -23.960938 11.71875 -23.921875 C 10.882812 -23.878906 10.160156 -23.820312 9.546875 -23.75 L 9.546875 -0.796875 C 9.546875 -0.578125 9.472656 -0.390625 9.328125 -0.234375 C 9.191406 -0.078125 9.015625 0 8.796875 0 L 3.53125 0 C 3.3125 0 3.128906 -0.078125 2.984375 -0.234375 C 2.847656 -0.390625 2.78125 -0.578125 2.78125 -0.796875 L 2.78125 -26.671875 C 2.78125 -27.578125 2.921875 -28.1875 3.203125 -28.5 C 3.492188 -28.820312 4.023438 -29.035156 4.796875 -29.140625 C 5.503906 -29.242188 6.40625 -29.347656 7.5 -29.453125 C 8.601562 -29.554688 9.703125 -29.640625 10.796875 -29.703125 C 11.898438 -29.773438 12.78125 -29.8125 13.4375 -29.8125 C 15.363281 -29.8125 17.078125 -29.644531 18.578125 -29.3125 C 20.085938 -28.976562 21.367188 -28.398438 22.421875 -27.578125 C 23.484375 -26.765625 24.289062 -25.617188 24.84375 -24.140625 C 25.40625 -22.660156 25.6875 -20.769531 25.6875 -18.46875 Z M 25.6875 -0.796875 "/></g></g></g><g fill="#ffffff" fill-opacity="1"><g transform="translate(277.992197, 214.4486)"><g><path d="M 22.984375 -24.09375 C 22.984375 -23.882812 22.929688 -23.75 22.828125 -23.6875 C 22.722656 -23.625 22.578125 -23.59375 22.390625 -23.59375 C 22.367188 -23.59375 22.347656 -23.59375 22.328125 -23.59375 C 22.316406 -23.59375 22.300781 -23.59375 22.28125 -23.59375 C 21.320312 -23.644531 20.128906 -23.707031 18.703125 -23.78125 C 17.273438 -23.863281 15.71875 -23.90625 14.03125 -23.90625 C 12.976562 -23.90625 12.0625 -23.707031 11.28125 -23.3125 C 10.5 -22.914062 9.894531 -22.226562 9.46875 -21.25 C 9.050781 -20.269531 8.84375 -18.910156 8.84375 -17.171875 L 8.84375 -12.203125 C 8.84375 -10.378906 9.078125 -8.976562 9.546875 -8 C 10.023438 -7.03125 10.609375 -6.363281 11.296875 -6 C 11.984375 -5.644531 12.644531 -5.46875 13.28125 -5.46875 C 14.363281 -5.46875 15.378906 -5.507812 16.328125 -5.59375 L 16.328125 -14.703125 C 16.328125 -14.921875 16.398438 -15.109375 16.546875 -15.265625 C 16.691406 -15.421875 16.867188 -15.5 17.078125 -15.5 L 22.15625 -15.5 C 22.363281 -15.5 22.546875 -15.421875 22.703125 -15.265625 C 22.867188 -15.109375 22.953125 -14.921875 22.953125 -14.703125 L 22.953125 -1.390625 C 22.953125 -0.890625 22.6875 -0.582031 22.15625 -0.46875 C 21.101562 -0.257812 19.851562 -0.0703125 18.40625 0.09375 C 16.96875 0.269531 15.257812 0.359375 13.28125 0.359375 C 12.144531 0.359375 10.925781 0.164062 9.625 -0.21875 C 8.332031 -0.601562 7.101562 -1.253906 5.9375 -2.171875 C 4.78125 -3.097656 3.832031 -4.378906 3.09375 -6.015625 C 2.351562 -7.660156 1.984375 -9.738281 1.984375 -12.25 L 1.984375 -17.171875 C 1.984375 -19.703125 2.332031 -21.785156 3.03125 -23.421875 C 3.726562 -25.066406 4.664062 -26.347656 5.84375 -27.265625 C 7.019531 -28.191406 8.320312 -28.847656 9.75 -29.234375 C 11.175781 -29.617188 12.601562 -29.8125 14.03125 -29.8125 C 16.007812 -29.8125 17.695312 -29.695312 19.09375 -29.46875 C 20.5 -29.25 21.570312 -29.054688 22.3125 -28.890625 C 22.757812 -28.816406 22.984375 -28.617188 22.984375 -28.296875 Z M 22.984375 -24.09375 "/></g></g></g><g fill="#ffffff" fill-opacity="1"><g transform="translate(101.062572, 235.675511)"><g><path d="M 6.453125 -8.296875 L 7.453125 -8.296875 L 7.453125 -2.796875 C 7.453125 -2.179688 7.300781 -1.648438 7 -1.203125 C 6.707031 -0.765625 6.316406 -0.429688 5.828125 -0.203125 C 5.347656 0.0234375 4.816406 0.140625 4.234375 0.140625 C 3.648438 0.140625 3.113281 0.0234375 2.625 -0.203125 C 2.132812 -0.429688 1.738281 -0.765625 1.4375 -1.203125 C 1.144531 -1.648438 1 -2.179688 1 -2.796875 L 1 -8.296875 L 2.015625 -8.296875 L 2.015625 -2.796875 C 2.015625 -2.367188 2.113281 -2.003906 2.3125 -1.703125 C 2.519531 -1.410156 2.789062 -1.1875 3.125 -1.03125 C 3.46875 -0.875 3.835938 -0.796875 4.234375 -0.796875 C 4.617188 -0.796875 4.976562 -0.875 5.3125 -1.03125 C 5.65625 -1.1875 5.929688 -1.410156 6.140625 -1.703125 C 6.347656 -2.003906 6.453125 -2.367188 6.453125 -2.796875 Z M 6.453125 -8.296875 "/></g></g></g><g fill="#ffffff" fill-opacity="1"><g transform="translate(112.934244, 235.675511)"><g><path d="M 1 0 L 1 -8.296875 L 3.8125 -8.296875 C 4.457031 -8.296875 4.988281 -8.175781 5.40625 -7.9375 C 5.820312 -7.707031 6.128906 -7.394531 6.328125 -7 C 6.523438 -6.601562 6.625 -6.160156 6.625 -5.671875 C 6.625 -5.179688 6.523438 -4.734375 6.328125 -4.328125 C 6.128906 -3.929688 5.820312 -3.613281 5.40625 -3.375 C 5 -3.144531 4.472656 -3.03125 3.828125 -3.03125 L 2.015625 -3.03125 L 2.015625 0 Z M 2.015625 -3.921875 L 3.796875 -3.921875 C 4.460938 -3.921875 4.9375 -4.085938 5.21875 -4.421875 C 5.5 -4.753906 5.640625 -5.171875 5.640625 -5.671875 C 5.640625 -6.171875 5.492188 -6.582031 5.203125 -6.90625 C 4.921875 -7.238281 4.445312 -7.40625 3.78125 -7.40625 L 2.015625 -7.40625 Z M 2.015625 -3.921875 "/></g></g></g><g fill="#ffffff" fill-opacity="1"><g transform="translate(123.591668, 235.675511)"><g><path d="M 1 0 L 1 -8.296875 L 2.015625 -8.296875 L 2.015625 -0.890625 L 5.859375 -0.890625 L 5.859375 0 Z M 1 0 "/></g></g></g><g fill="#ffffff" fill-opacity="1"><g transform="translate(133.423411, 235.675511)"><g><path d="M 8 -4.140625 C 8 -3.265625 7.84375 -2.507812 7.53125 -1.875 C 7.21875 -1.238281 6.785156 -0.75 6.234375 -0.40625 C 5.679688 -0.0625 5.050781 0.109375 4.34375 0.109375 C 3.632812 0.109375 3.003906 -0.0625 2.453125 -0.40625 C 1.898438 -0.75 1.46875 -1.238281 1.15625 -1.875 C 0.84375 -2.507812 0.6875 -3.265625 0.6875 -4.140625 C 0.6875 -5.015625 0.84375 -5.769531 1.15625 -6.40625 C 1.46875 -7.050781 1.898438 -7.546875 2.453125 -7.890625 C 3.003906 -8.234375 3.632812 -8.40625 4.34375 -8.40625 C 5.050781 -8.40625 5.679688 -8.234375 6.234375 -7.890625 C 6.785156 -7.546875 7.21875 -7.050781 7.53125 -6.40625 C 7.84375 -5.769531 8 -5.015625 8 -4.140625 Z M 7.03125 -4.140625 C 7.03125 -4.859375 6.910156 -5.460938 6.671875 -5.953125 C 6.429688 -6.453125 6.109375 -6.828125 5.703125 -7.078125 C 5.296875 -7.335938 4.84375 -7.46875 4.34375 -7.46875 C 3.84375 -7.46875 3.390625 -7.335938 2.984375 -7.078125 C 2.578125 -6.828125 2.253906 -6.453125 2.015625 -5.953125 C 1.773438 -5.460938 1.65625 -4.859375 1.65625 -4.140625 C 1.65625 -3.421875 1.773438 -2.816406 2.015625 -2.328125 C 2.253906 -1.835938 2.578125 -1.460938 2.984375 -1.203125 C 3.390625 -0.953125 3.84375 -0.828125 4.34375 -0.828125 C 4.84375 -0.828125 5.296875 -0.953125 5.703125 -1.203125 C 6.109375 -1.460938 6.429688 -1.835938 6.671875 -2.328125 C 6.910156 -2.816406 7.03125 -3.421875 7.03125 -4.140625 Z M 7.03125 -4.140625 "/></g></g></g><g fill="#ffffff" fill-opacity="1"><g transform="translate(145.521736, 235.675511)"><g><path d="M 1.34375 0 L 0.296875 0 L 3.34375 -8.296875 L 4.375 -8.296875 L 7.421875 0 L 6.375 0 L 5.53125 -2.34375 L 2.171875 -2.34375 Z M 2.5 -3.234375 L 5.21875 -3.234375 L 3.890625 -6.984375 L 3.828125 -6.984375 Z M 2.5 -3.234375 "/></g></g></g><g fill="#ffffff" fill-opacity="1"><g transform="translate(156.648671, 235.675511)"><g><path d="M 3.5625 0 L 1 0 L 1 -8.296875 L 3.671875 -8.296875 C 4.484375 -8.296875 5.175781 -8.128906 5.75 -7.796875 C 6.320312 -7.460938 6.757812 -6.988281 7.0625 -6.375 C 7.363281 -5.757812 7.515625 -5.019531 7.515625 -4.15625 C 7.515625 -3.300781 7.359375 -2.5625 7.046875 -1.9375 C 6.742188 -1.3125 6.296875 -0.832031 5.703125 -0.5 C 5.117188 -0.164062 4.40625 0 3.5625 0 Z M 2.015625 -0.890625 L 3.5 -0.890625 C 4.53125 -0.890625 5.296875 -1.179688 5.796875 -1.765625 C 6.296875 -2.347656 6.546875 -3.144531 6.546875 -4.15625 C 6.546875 -5.164062 6.300781 -5.957031 5.8125 -6.53125 C 5.320312 -7.113281 4.585938 -7.40625 3.609375 -7.40625 L 2.015625 -7.40625 Z M 2.015625 -0.890625 "/></g></g></g><g fill="#ffffff" fill-opacity="1"><g transform="translate(168.261307, 235.675511)"><g/></g></g><g fill="#ffffff" fill-opacity="1"><g transform="translate(174.887469, 235.675511)"><g><path d="M 1 0 L 1 -8.296875 L 5.984375 -8.296875 L 5.984375 -7.40625 L 2.015625 -7.40625 L 2.015625 -4.59375 L 5.609375 -4.59375 L 5.609375 -3.703125 L 2.015625 -3.703125 L 2.015625 0 Z M 1 0 "/></g></g></g><g fill="#ffffff" fill-opacity="1"><g transform="translate(184.994445, 235.675511)"><g><path d="M 2.015625 -8.296875 L 2.015625 0 L 1 0 L 1 -8.296875 Z M 2.015625 -8.296875 "/></g></g></g><g fill="#ffffff" fill-opacity="1"><g transform="translate(191.426329, 235.675511)"><g><path d="M 1 0 L 1 -8.296875 L 2.015625 -8.296875 L 2.015625 -0.890625 L 5.859375 -0.890625 L 5.859375 0 Z M 1 0 "/></g></g></g><g fill="#ffffff" fill-opacity="1"><g transform="translate(201.258075, 235.675511)"><g><path d="M 1 0 L 1 -8.296875 L 6.015625 -8.296875 L 6.015625 -7.40625 L 2.015625 -7.40625 L 2.015625 -4.59375 L 5.75 -4.59375 L 5.75 -3.703125 L 2.015625 -3.703125 L 2.015625 -0.890625 L 6.078125 -0.890625 L 6.078125 0 Z M 1 0 "/></g></g></g><g fill="#ffffff" fill-opacity="1"><g transform="translate(211.49457, 235.675511)"><g/></g></g><g fill="#ffffff" fill-opacity="1"><g transform="translate(218.120725, 235.675511)"><g><path d="M 3.21875 0.109375 C 2.675781 0.109375 2.207031 0.0078125 1.8125 -0.1875 C 1.414062 -0.382812 1.109375 -0.65625 0.890625 -1 C 0.679688 -1.351562 0.578125 -1.753906 0.578125 -2.203125 C 0.578125 -2.703125 0.726562 -3.125 1.03125 -3.46875 C 1.34375 -3.820312 1.738281 -4.164062 2.21875 -4.5 C 1.9375 -4.84375 1.703125 -5.171875 1.515625 -5.484375 C 1.335938 -5.796875 1.25 -6.132812 1.25 -6.5 C 1.25 -7.050781 1.429688 -7.5 1.796875 -7.84375 C 2.160156 -8.195312 2.644531 -8.375 3.25 -8.375 C 3.664062 -8.375 4.023438 -8.289062 4.328125 -8.125 C 4.628906 -7.96875 4.859375 -7.757812 5.015625 -7.5 C 5.179688 -7.238281 5.265625 -6.953125 5.265625 -6.640625 C 5.265625 -6.242188 5.164062 -5.898438 4.96875 -5.609375 C 4.769531 -5.316406 4.5 -5.046875 4.15625 -4.796875 L 3.5625 -4.34375 L 5.359375 -2.140625 C 5.460938 -2.347656 5.546875 -2.578125 5.609375 -2.828125 C 5.671875 -3.078125 5.703125 -3.34375 5.703125 -3.625 L 6.625 -3.625 C 6.625 -3.050781 6.550781 -2.585938 6.40625 -2.234375 C 6.269531 -1.878906 6.125 -1.597656 5.96875 -1.390625 L 7.109375 0 L 5.96875 0 L 5.375 -0.703125 C 5.101562 -0.429688 4.769531 -0.226562 4.375 -0.09375 C 3.988281 0.0390625 3.601562 0.109375 3.21875 0.109375 Z M 4.796875 -1.390625 L 2.8125 -3.796875 L 2.515625 -3.5625 C 2.140625 -3.289062 1.882812 -3.023438 1.75 -2.765625 C 1.625 -2.503906 1.5625 -2.316406 1.5625 -2.203125 C 1.5625 -1.941406 1.625 -1.695312 1.75 -1.46875 C 1.882812 -1.25 2.078125 -1.070312 2.328125 -0.9375 C 2.578125 -0.800781 2.863281 -0.734375 3.1875 -0.734375 C 3.789062 -0.734375 4.328125 -0.953125 4.796875 -1.390625 Z M 2.96875 -5.0625 L 3.515625 -5.453125 C 3.753906 -5.609375 3.941406 -5.773438 4.078125 -5.953125 C 4.222656 -6.128906 4.296875 -6.359375 4.296875 -6.640625 C 4.296875 -6.847656 4.203125 -7.050781 4.015625 -7.25 C 3.828125 -7.445312 3.582031 -7.546875 3.28125 -7.546875 C 3.070312 -7.546875 2.882812 -7.492188 2.71875 -7.390625 C 2.5625 -7.285156 2.4375 -7.148438 2.34375 -6.984375 C 2.257812 -6.816406 2.21875 -6.648438 2.21875 -6.484375 C 2.21875 -6.253906 2.289062 -6.019531 2.4375 -5.78125 C 2.59375 -5.539062 2.769531 -5.300781 2.96875 -5.0625 Z M 2.96875 -5.0625 "/></g></g></g><g fill="#ffffff" fill-opacity="1"><g transform="translate(228.826724, 235.675511)"><g/></g></g><g fill="#ffffff" fill-opacity="1"><g transform="translate(235.452879, 235.675511)"><g><path d="M 5.546875 -6.21875 C 5.492188 -6.632812 5.296875 -6.953125 4.953125 -7.171875 C 4.609375 -7.398438 4.179688 -7.515625 3.671875 -7.515625 C 3.117188 -7.515625 2.675781 -7.382812 2.34375 -7.125 C 2.007812 -6.863281 1.84375 -6.535156 1.84375 -6.140625 C 1.84375 -5.835938 1.929688 -5.59375 2.109375 -5.40625 C 2.296875 -5.226562 2.515625 -5.085938 2.765625 -4.984375 C 3.015625 -4.890625 3.242188 -4.816406 3.453125 -4.765625 L 4.296875 -4.53125 C 4.515625 -4.476562 4.753906 -4.398438 5.015625 -4.296875 C 5.285156 -4.203125 5.539062 -4.066406 5.78125 -3.890625 C 6.03125 -3.722656 6.234375 -3.503906 6.390625 -3.234375 C 6.546875 -2.960938 6.625 -2.632812 6.625 -2.25 C 6.625 -1.800781 6.503906 -1.394531 6.265625 -1.03125 C 6.035156 -0.675781 5.695312 -0.390625 5.25 -0.171875 C 4.800781 0.0351562 4.257812 0.140625 3.625 0.140625 C 2.738281 0.140625 2.03125 -0.0664062 1.5 -0.484375 C 0.976562 -0.910156 0.691406 -1.460938 0.640625 -2.140625 L 1.6875 -2.140625 C 1.707031 -1.828125 1.8125 -1.566406 2 -1.359375 C 2.1875 -1.160156 2.421875 -1.007812 2.703125 -0.90625 C 2.992188 -0.8125 3.300781 -0.765625 3.625 -0.765625 C 4.007812 -0.765625 4.351562 -0.828125 4.65625 -0.953125 C 4.96875 -1.078125 5.210938 -1.25 5.390625 -1.46875 C 5.566406 -1.695312 5.65625 -1.960938 5.65625 -2.265625 C 5.65625 -2.546875 5.578125 -2.769531 5.421875 -2.9375 C 5.265625 -3.113281 5.0625 -3.253906 4.8125 -3.359375 C 4.5625 -3.472656 4.289062 -3.566406 4 -3.640625 L 2.984375 -3.9375 C 2.335938 -4.125 1.820312 -4.390625 1.4375 -4.734375 C 1.0625 -5.078125 0.875 -5.53125 0.875 -6.09375 C 0.875 -6.550781 1 -6.953125 1.25 -7.296875 C 1.5 -7.648438 1.835938 -7.921875 2.265625 -8.109375 C 2.703125 -8.304688 3.179688 -8.40625 3.703125 -8.40625 C 4.242188 -8.40625 4.722656 -8.3125 5.140625 -8.125 C 5.554688 -7.9375 5.882812 -7.675781 6.125 -7.34375 C 6.375 -7.007812 6.503906 -6.632812 6.515625 -6.21875 Z M 5.546875 -6.21875 "/></g></g></g><g fill="#ffffff" fill-opacity="1"><g transform="translate(246.142684, 235.675511)"><g><path d="M 1.34375 0 L 0.296875 0 L 3.34375 -8.296875 L 4.375 -8.296875 L 7.421875 0 L 6.375 0 L 5.53125 -2.34375 L 2.171875 -2.34375 Z M 2.5 -3.234375 L 5.21875 -3.234375 L 3.890625 -6.984375 L 3.828125 -6.984375 Z M 2.5 -3.234375 "/></g></g></g><g fill="#ffffff" fill-opacity="1"><g transform="translate(257.269612, 235.675511)"><g><path d="M 1 0 L 1 -8.296875 L 2.015625 -8.296875 L 2.015625 -0.890625 L 5.859375 -0.890625 L 5.859375 0 Z M 1 0 "/></g></g></g><g fill="#ffffff" fill-opacity="1"><g transform="translate(267.101351, 235.675511)"><g><path d="M 1 0 L 1 -8.296875 L 6.015625 -8.296875 L 6.015625 -7.40625 L 2.015625 -7.40625 L 2.015625 -4.59375 L 5.75 -4.59375 L 5.75 -3.703125 L 2.015625 -3.703125 L 2.015625 -0.890625 L 6.078125 -0.890625 L 6.078125 0 Z M 1 0 "/></g></g></g><path stroke-linecap="butt" transform="matrix(0.236726, -0.71166, 0.71166, 0.236726, 176.9859, 166.597021)" fill="none" stroke-linejoin="miter" d="M -0.000337858 3.499903 L 20.353535 3.50273 " stroke="#1b2479" stroke-width="7" stroke-opacity="1" stroke-miterlimit="4"/></svg>